<?xml version="1.0" standalone="no"?>
<!DOCTYPE svg PUBLIC "-//W3C//DTD SVG 1.1//EN" "http://www.w3.org/Graphics/SVG/1.1/DTD/svg11.dtd" >
<svg xmlns="http://www.w3.org/2000/svg">
<defs>
  <font id="insales-icons" horiz-adv-x="1000">
    <font-face font-family="insales-icons"
      units-per-em="1000" ascent="1000"
      descent="0" />
    <missing-glyph horiz-adv-x="0" />
    <glyph glyph-name="angle-down"
      unicode="&#xE800;"
      horiz-adv-x="1000" d="M503.1250000000001 318.75C375 318.75 209.375 590.625 190.625 621.875C184.375 634.375 187.5 646.875 200 653.125C212.5 659.375 225 656.25 231.25 643.75C296.875 534.375 425 362.5 503.1250000000001 362.5C581.25 362.5 709.375 534.375 775 643.75C781.25 656.25 796.875 659.375 806.25 653.125C818.75 646.875 821.875 631.25 815.625 621.875C796.875 590.625 631.25 318.75 503.1250000000001 318.75z" />
    <glyph glyph-name="angle-left"
      unicode="&#xE801;"
      horiz-adv-x="1000" d="M659.375 181.25C656.25 181.25 650 181.25 646.875 184.375C615.625 203.125 343.75 368.75 343.75 496.8749999999999C343.75 625 615.625 790.625 646.875 809.375C659.375 815.625 671.875 812.5 678.125 800C684.375 787.5 681.25 775 668.75 768.75C559.375 703.125 387.5 575 387.5 496.8749999999999C387.5 418.75 559.375 290.625 668.75 225C681.25 218.75 684.375 203.125 678.125 193.75C675 187.5 665.625 181.25 659.375 181.25z" />
    <glyph glyph-name="angle-right"
      unicode="&#xE802;"
      horiz-adv-x="1000" d="M365.625 181.25C356.25 181.25 350 184.375 346.875 193.75C340.625 206.25 343.75 218.75 356.25 225C465.625 290.625 637.5 418.75 637.5 496.8749999999999C637.5 575 465.625 703.125 356.25 768.75C343.75 775 340.625 790.625 346.875 800C353.125 812.5 368.75 815.625 378.125 809.375C409.375 790.625 681.25 625 681.25 496.8749999999999C681.25 368.75 409.375 203.125 378.125 184.375C371.875 184.375 368.75 181.25 365.625 181.25z" />
    <glyph glyph-name="angle-up"
      unicode="&#xE803;"
      horiz-adv-x="1000" d="M212.5 318.75C209.375 318.75 203.125 318.75 200 321.875C187.5 328.125 184.375 343.75 190.625 353.125C209.375 384.375 375 656.25 503.1250000000001 656.25C631.25 656.25 796.875 384.375 815.625 353.125C821.875 340.625 818.75 328.125 806.25 321.875C793.75 315.625 781.25 318.75 775 331.25C709.375 440.625 581.25 612.5 503.1250000000001 612.5C425 612.5 296.875 440.625 231.25 331.25C228.125 321.875 218.75 318.75 212.5 318.75z" />
    <glyph glyph-name="arrow-down"
      unicode="&#xE804;"
      horiz-adv-x="1000" d="M493.75 168.75C481.25 168.75 468.75 178.125 468.75 193.75V818.75C468.75 831.25 478.125 843.75 493.75 843.75C509.375 843.75 518.75 834.375 518.75 818.75V193.75C515.625 178.125 506.25 168.75 493.75 168.75zM493.75 168.75C368.75 168.75 237.5 406.25 221.875 434.375C215.625 446.875 218.7496875 459.375 231.2496875 465.625C243.7496875 471.875 256.2496875 468.75 262.4996875000001 456.25C299.9996875 390.625 409.375 215.625 493.75 215.625C575 215.625 687.5 387.5 725 456.25C731.25 468.75 746.875 471.875 756.25 465.625C768.75 459.375 771.875 443.75 765.625 434.375C750 406.25 618.75 168.75 493.75 168.75z" />
    <glyph glyph-name="arrow-left"
      unicode="&#xE805;"
      horiz-adv-x="1000" d="M806.25 484.375H181.25C168.75 484.375 156.25 493.75 156.25 509.375C156.25 525 165.625 531.25 181.25 531.25H806.25C818.75 531.25 831.25 521.875 831.25 506.25C831.25 490.625 818.75 484.375 806.25 484.375zM431.25 231.25C428.125 231.25 425 231.25 418.75 234.375C393.75 250 156.25 381.25 156.25 506.25C156.25 631.25 393.75 762.5 421.875 778.125C434.375 784.375 446.875 781.25 453.125 768.75C459.375 756.25 456.25 743.75 443.75 737.5C375 700 203.125 590.625 203.125 506.25C203.125 421.875 375 312.5 443.75 275C456.25 268.75 459.375 253.125 453.125 243.75C446.875 237.5 440.625 231.25 431.25 231.25z" />
    <glyph glyph-name="arrow-right"
      unicode="&#xE806;"
      horiz-adv-x="1000" d="M806.25 484.378125H181.25C168.75 484.378125 156.25 493.753125 156.25 509.378125C156.25 525.003125 165.625 534.378125 181.25 534.378125H806.25C818.75 534.378125 812.5 531.253125 812.5 515.628125C812.5 500.003125 818.75 484.378125 806.25 484.378125zM553.1218749999999 231.25C543.7468749999999 231.25 537.4968749999999 234.375 531.246875 243.75C524.996875 256.25 528.1218749999999 268.75 540.621875 275C606.2468749999999 312.5 781.246875 421.875 781.246875 506.25C781.246875 590.625 609.371875 700 540.621875 737.5C528.1218749999999 743.75 524.996875 759.375 531.246875 768.75C537.4968749999999 781.25 553.1218749999999 784.375 562.496875 778.125C590.6218749999999 762.5 828.121875 631.25 828.121875 506.25C828.121875 381.25 590.6218749999999 250 562.496875 234.375C559.3718749999999 234.375 556.246875 231.25 553.1218749999999 231.25z" />
    <glyph glyph-name="arrow-up"
      unicode="&#xE807;"
      horiz-adv-x="1000" d="M493.75 171.878125C481.25 171.878125 468.75 181.2531250000001 468.75 196.8781250000001V821.8778125C468.75 834.3778125 468.75 828.12875 484.375 828.12875C500 828.12875 518.75 837.5028125 518.75 821.8778125V196.8781250000001C515.625 181.2531250000001 506.25 171.878125 493.75 171.878125zM243.75 543.75C240.625 543.75 237.4996875 543.75 231.2496875 546.875C218.7496875 553.125 215.625 568.75 221.875 578.125C237.5 606.25 368.75 843.75 493.75 843.75C618.75 843.75 750 606.25 765.625 578.125C771.875 565.625 768.75 553.125 756.25 546.875C743.75 540.625 731.25 543.75 725 556.25C687.5 621.875 578.125 796.875 493.75 796.875C409.375 796.875 299.9996875 625 262.4996875000001 556.25C259.3746875 550 250 543.75 243.75 543.75z" />
    <glyph glyph-name="bars"
      unicode="&#xE808;"
      horiz-adv-x="1000" d="M132.8125 500C132.8125 512.9437499999999 143.3059375 523.4375 156.25 523.4375H843.75C856.69375 523.4375 867.1875 512.9437499999999 867.1875 500C867.1875 487.05625 856.69375 476.5625 843.75 476.5625H156.25C143.3059375 476.5625 132.8125 487.05625 132.8125 500zM132.8125 750C132.8125 762.9440625 143.3059375 773.4375 156.25 773.4375H843.75C856.69375 773.4375 867.1875 762.9440625 867.1875 750C867.1875 737.0559375 856.69375 726.5625 843.75 726.5625H156.25C143.3059375 726.5625 132.8125 737.0559375 132.8125 750zM132.8125 250C132.8125 262.94375 143.3059375 273.4375 156.25 273.4375H843.75C856.69375 273.4375 867.1875 262.94375 867.1875 250C867.1875 237.05625 856.69375 226.5625 843.75 226.5625H156.25C143.3059375 226.5625 132.8125 237.05625 132.8125 250z" />
    <glyph glyph-name="bell-slash"
      unicode="&#xE809;"
      horiz-adv-x="1000" d="M395.38125 912.625625C425.159375 923.5615625 458.3875 929.6875 495.065625 929.6875C595.478125 929.6875 668.2843750000001 883.844375 715.375 823.140625C761.8937500000001 763.17375 783.5437499999999 688.584375 783.5437499999999 628.3531250000001C783.5437499999999 610.765625 783.0125 597.75 782.603125 587.75C782.5187500000001 585.68125 782.4375 583.740625 782.36875 581.915625C781.965625 571.115625 782.009375 565.2718749999999 782.971875 559.325C785.0625 546.371875 791.64375 530.828125 815.21875 478.8718749999999C820.5687499999999 467.084375 815.3468750000001 453.190625 803.5593749999999 447.84375C791.771875 442.49375 777.88125 447.715625 772.534375 459.5031250000001C750.359375 508.36875 740.05 531.090625 736.696875 551.846875C734.934375 562.753125 735.115625 572.6312499999999 735.5281249999999 583.66875C735.6 585.646875 735.6843749999999 587.69375 735.7718749999999 589.83125C736.178125 599.8 736.6687499999999 611.803125 736.6687499999999 628.3531250000001C736.6687499999999 678.71875 718.1593750000001 743.0765624999999 678.3375000000001 794.4090625C639.090625 845.005 579.378125 882.8125 495.065625 882.8125C463.690625 882.8125 435.95 877.58875 411.54375 868.624375C399.39375 864.161875 385.925 870.3940625 381.4625 882.5446875C377 894.695 383.2312500000001 908.1628125 395.38125 912.625625zM315.4187500000001 835.410625C325.3125 827.0671875 326.5718750000001 812.2809374999999 318.228125 802.3846875C274.0134375 749.9406250000001 253.464375 681.45625 253.464375 628.3531250000001C253.464375 611.803125 253.95375 599.8031249999999 254.360625 589.834375C254.4478125 587.69375 254.5315625 585.646875 254.6053125000001 583.66875C255.0184375 572.6312499999999 255.1990625000001 562.753125 253.436875 551.846875C250.096875 531.175 239.8640625 508.56875 217.8778125 460.115625C206.6103125 430.728125 210.003125 407.875 221.2559375 388.8875000000001C233.284375 368.590625 255.766875 350.3562500000001 286.421875 335.0656250000001C347.7375 304.475 432.58125 290.203125 495.065625 290.203125C533.5124999999999 290.203125 581.10625 295.634375 626.63125 307.28125C672.4875000000001 319.015625 714.140625 336.528125 742.3625000000001 359.375C752.425 367.521875 767.1812500000001 365.96875 775.328125 355.909375C783.4718750000001 345.846875 781.91875 331.090625 771.859375 322.94375C736.228125 294.0968750000001 687.25625 274.409375 638.25 261.871875C588.9124999999999 249.246875 537.4124999999999 243.328125 495.065625 243.328125C427.553125 243.328125 335.053125 258.421875 265.4968750000001 293.11875C230.7153125 310.471875 199.378125 333.8625 180.930625 364.990625C161.780625 397.303125 158.0109375 435.5 174.4128125 477.68125C174.56875 478.0812500000001 174.7359375 478.478125 174.91375 478.8718749999999C198.4896875 530.828125 205.0696875 546.371875 207.1621875 559.325C208.123125 565.2718749999999 208.1675 571.115625 207.763125 581.915625C207.695 583.740625 207.615625 585.68125 207.5309375 587.75C207.1215625 597.753125 206.589375 610.765625 206.589375 628.3531250000001C206.589375 691.700625 230.5409375 771.099375 282.39125 832.599375C290.735 842.495625 305.52125 843.754375 315.4187500000001 835.410625zM383.190625 173.8125C392.84375 182.4375 407.659375 181.6 416.284375 171.9468750000001C461.31875 121.5281249999999 529.1375 122.03125 573.840625 171.9656250000001C582.4749999999999 181.609375 597.2937499999999 182.428125 606.9375 173.796875C616.58125 165.1625 617.4 150.34375 608.765625 140.7000000000001C545.6125 70.1593750000001 445.178125 69.234375 381.3250000000001 140.721875C372.7 150.375 373.5375 165.1906250000001 383.190625 173.8125zM202.58625 923.221875C211.9596875 932.1490625 226.795 931.7871875 235.721875 922.41375L860.721875 266.1625C869.6500000000001 256.7906250000001 869.2875 241.95625 859.9125 233.0281250000001C850.5406250000001 224.0999999999999 835.70625 224.4625 826.778125 233.8375L201.778125 890.08625C192.8509375 899.459375 193.2128125 914.295 202.58625 923.221875z" />
    <glyph glyph-name="bell"
      unicode="&#xE80A;"
      horiz-adv-x="1000" d="M274.74125 823.139375C321.828125 883.8453125 394.6375 929.6875 495.065625 929.6875C595.478125 929.6875 668.2843750000001 883.844375 715.375 823.140625C761.8937500000001 763.17375 783.5437499999999 688.584375 783.5437499999999 628.3531250000001C783.5437499999999 610.765625 783.0125 597.75 782.603125 587.75C782.5187500000001 585.68125 782.4375 583.740625 782.36875 581.915625C781.965625 571.115625 782.009375 565.2718749999999 782.971875 559.325C785.0625 546.371875 791.64375 530.828125 815.21875 478.8718749999999C815.396875 478.478125 815.565625 478.078125 815.7218750000001 477.675C832.1125000000001 435.49375 828.33125 397.296875 809.178125 364.9875000000001C790.725 333.859375 759.3875 310.471875 724.60625 293.11875C655.0500000000001 258.421875 562.5625 243.328125 495.065625 243.328125C427.553125 243.328125 335.053125 258.421875 265.4968750000001 293.11875C230.7153125 310.471875 199.378125 333.8625 180.930625 364.990625C161.780625 397.303125 158.0109375 435.5 174.4128125 477.68125C174.56875 478.0812500000001 174.7359375 478.478125 174.91375 478.8718749999999C198.4896875 530.828125 205.0696875 546.371875 207.1621875 559.325C208.123125 565.2718749999999 208.1675 571.115625 207.763125 581.915625C207.695 583.740625 207.615625 585.68125 207.5309375 587.75C207.1215625 597.75 206.589375 610.765625 206.589375 628.3531250000001C206.589375 688.5818750000001 228.226875 763.17125 274.74125 823.139375zM311.7803125 794.4103125C271.9653125 743.07875 253.464375 678.71875 253.464375 628.3531250000001C253.464375 611.803125 253.95375 599.8031249999999 254.360625 589.834375C254.4478125 587.69375 254.5315625 585.646875 254.6053125000001 583.66875C255.0184375 572.6312499999999 255.1990625000001 562.753125 253.436875 551.846875C250.096875 531.175 239.8640625 508.56875 217.8778125 460.115625C206.6103125 430.728125 210.003125 407.875 221.2559375 388.8875000000001C233.284375 368.590625 255.766875 350.3562500000001 286.421875 335.0656250000001C347.7375 304.475 432.58125 290.203125 495.065625 290.203125C557.53125 290.203125 642.365625 304.475 703.6812500000001 335.0656250000001C734.3375 350.3562500000001 756.821875 368.590625 768.85625 388.890625C780.1125 407.88125 783.5124999999999 430.734375 772.253125 460.115625C750.2687500000001 508.56875 740.0343750000001 531.175 736.696875 551.846875C734.934375 562.753125 735.115625 572.6312499999999 735.5281249999999 583.66875C735.6 585.646875 735.6843749999999 587.69375 735.7718749999999 589.83125C736.178125 599.8031249999999 736.6687499999999 611.803125 736.6687499999999 628.3531250000001C736.6687499999999 678.71875 718.1593750000001 743.0765624999999 678.3375000000001 794.4090625C639.090625 845.005 579.378125 882.8125 495.065625 882.8125C410.734375 882.8125 351.021875 845.00375 311.7803125 794.4103125zM383.190625 173.8125C392.84375 182.4375 407.659375 181.6 416.284375 171.9468750000001C461.31875 121.5281249999999 529.1375 122.03125 573.840625 171.9656250000001C582.4749999999999 181.609375 597.2937499999999 182.428125 606.9375 173.796875C616.58125 165.1625 617.4 150.34375 608.765625 140.7000000000001C545.6125 70.1593750000001 445.178125 69.234375 381.3250000000001 140.721875C372.7 150.375 373.5375 165.1906250000001 383.190625 173.8125z" />
    <glyph glyph-name="calendar"
      unicode="&#xE80B;"
      horiz-adv-x="1000" d="M226.1084375 744.6775C172.6796875 691.253125 148.4375 602.971875 148.4375 459.35625C148.4375 315.7375 172.6796875 227.4562500000001 226.1084375 174.034375C279.5381250000001 120.609375 367.81875 96.375 511.415625 96.375C655.0375 96.375 743.328125 120.609375 796.7625 174.034375C850.196875 227.459375 874.4375 315.7375 874.4375 459.35625C874.4375 602.971875 850.196875 691.2525 796.7625 744.6765625C743.328125 798.1021875 655.0375 822.334375 511.415625 822.334375C367.81875 822.334375 279.5381250000001 798.1021875 226.1084375 744.6775zM192.964375 777.824375C260.2953125 845.1496875 365.221875 869.209375 511.415625 869.209375C657.63125 869.209375 762.56875 845.15 829.90625 777.8253125C897.240625 710.499375 921.3125 605.571875 921.3125 459.35625C921.3125 313.140625 897.240625 208.209375 829.90625 140.884375C762.56875 73.5593749999999 657.63125 49.5 511.415625 49.5C365.221875 49.5 260.2953125 73.5593749999999 192.964375 140.884375C125.6328125 208.2125 101.5625 313.140625 101.5625 459.35625C101.5625 605.571875 125.6328125 710.4990625 192.964375 777.824375zM113.0371875 603.171875C113.0371875 616.115625 123.5303125 626.609375 136.4746875 626.609375H886.809375C899.7531250000001 626.609375 910.246875 616.115625 910.246875 603.171875C910.246875 590.228125 899.7531250000001 579.734375 886.809375 579.734375H136.4746875C123.5303125 579.734375 113.0371875 590.228125 113.0371875 603.171875zM671.509375 439.125C671.509375 452.06875 682.0031250000001 462.5625 694.946875 462.5625H695.321875C708.265625 462.5625 718.759375 452.06875 718.759375 439.125C718.759375 426.18125 708.265625 415.6875 695.321875 415.6875H694.946875C682.0031250000001 415.6875 671.509375 426.18125 671.509375 439.125zM488.20625 439.125C488.20625 452.06875 498.696875 462.5625 511.64375 462.5625H512.01875C524.9625 462.5625 535.45625 452.06875 535.45625 439.125C535.45625 426.18125 524.9625 415.6875 512.01875 415.6875H511.64375C498.696875 415.6875 488.20625 426.18125 488.20625 439.125zM304.5503125 439.125C304.5503125 452.06875 315.04375 462.5625 327.9875 462.5625H328.3625C341.30625 462.5625 351.8 452.06875 351.8 439.125C351.8 426.18125 341.30625 415.6875 328.3625 415.6875H327.9875C315.04375 415.6875 304.5503125 426.18125 304.5503125 439.125zM671.509375 278.634375C671.509375 291.578125 682.0031250000001 302.071875 694.946875 302.071875H695.321875C708.265625 302.071875 718.759375 291.578125 718.759375 278.634375C718.759375 265.6875 708.265625 255.196875 695.321875 255.196875H694.946875C682.0031250000001 255.196875 671.509375 265.6875 671.509375 278.634375zM488.20625 278.634375C488.20625 291.578125 498.696875 302.071875 511.64375 302.071875H512.01875C524.9625 302.071875 535.45625 291.578125 535.45625 278.634375C535.45625 265.6875 524.9625 255.196875 512.01875 255.196875H511.64375C498.696875 255.196875 488.20625 265.6875 488.20625 278.634375zM304.5503125 278.634375C304.5503125 291.578125 315.04375 302.071875 327.9875 302.071875H328.3625C341.30625 302.071875 351.8 291.578125 351.8 278.634375C351.8 265.6875 341.30625 255.196875 328.3625 255.196875H327.9875C315.04375 255.196875 304.5503125 265.6875 304.5503125 278.634375zM678.4656249999999 929.6875C691.4125 929.6875 701.9031249999999 919.1940625 701.9031249999999 906.25V770.3334375C701.9031249999999 757.3890625 691.4125 746.8959375 678.4656249999999 746.8959375C665.521875 746.8959375 655.0281249999999 757.3890625 655.0281249999999 770.3334375V906.25C655.0281249999999 919.1940625 665.521875 929.6875 678.4656249999999 929.6875zM344.7875 929.6875C357.73125 929.6875 368.225 919.1940625 368.225 906.25V770.3334375C368.225 757.3890625 357.73125 746.8959375 344.7875 746.8959375C331.84375 746.8959375 321.35 757.3890625 321.35 770.3334375V906.25C321.35 919.1940625 331.84375 929.6875 344.7875 929.6875z" />
    <glyph glyph-name="camera"
      unicode="&#xE80C;"
      horiz-adv-x="1000" d="M493.746875 304.6875C409.371875 304.6875 340.6218750000001 373.4375 340.6218750000001 457.8125C340.6218750000001 542.1875 409.371875 610.9375 493.746875 610.9375C578.121875 610.9375 646.8718749999999 542.1875 646.8718749999999 457.8125C646.8718749999999 373.4375 578.121875 304.6875 493.746875 304.6875zM493.746875 567.1875C434.3718750000001 567.1875 387.4968750000001 520.3125 387.4968750000001 460.9375C387.4968750000001 401.5625 434.3718750000001 354.6875 493.746875 354.6875C553.1218749999999 354.6875 599.9968749999999 401.5625 599.9968749999999 460.9375C599.9968749999999 517.1875 553.1218749999999 567.1875 493.746875 567.1875zM493.75 114.0625C150 114.0625 93.75 220.3125 93.75 454.6875C93.75 595.3125 106.25 704.6875 259.375 745.3125C265.625 748.4375 275 754.6875 281.25 764.0625C284.375 767.1875 290.625 776.5625 293.75 785.9375C306.25 810.9375 325 848.4375 359.375 860.9375C406.25 879.6875 575 879.6875 621.875 860.9375C656.25 845.3125 675 810.9375 687.5 785.9375C690.625 776.5625 696.875 767.1875 700 764.0625C709.375 754.6875 718.75 751.5625 725 748.4375C875 707.8125 887.5 595.3125 887.5 457.8125C890.625 220.3125 834.375 114.0625 493.75 114.0625zM493.75 829.6875C446.875 829.6875 396.875 826.5625 378.125 817.1875C359.375 810.9375 346.875 785.9375 337.5 764.0625C331.25 751.5625 325 739.0625 315.625 732.8125C300 714.0625 284.375 707.8125 271.875 701.5625C159.375 670.3125 140.625 604.6875 140.625 454.6875C140.625 245.3125 171.875 160.9375 493.75 160.9375C815.625 160.9375 843.75 245.3125 843.75 454.6875C843.75 604.6875 825 670.3125 712.5 701.5625C700 704.6875 681.25 714.0625 665.625 729.6875C659.375 739.0625 653.125 748.4375 646.875 764.0625C637.5 785.9375 625 810.9375 606.25 817.1875C587.5 826.5625 540.625 829.6875 493.75 829.6875zM696.875 582.8125C684.375 582.8125 671.875 592.1875 671.875 607.8125C671.875 623.4375 681.25 632.8125 693.75 632.8125C706.25 632.8125 718.75 623.4375 718.75 607.8125C718.75 592.1875 709.375 582.8125 696.875 582.8125z" />
    <glyph glyph-name="cart"
      unicode="&#xE80D;"
      horiz-adv-x="1000" d="M121.1884375 905.9028125C108.43375 908.1103125 96.3046875 899.5603125 94.0971875 886.8059375C91.8896875 874.05125 100.4396875 861.9221875 113.194375 859.7146875L182.285 847.7565625L194.444375 724.5121875L194.5 723.9471874999999L226.1596875 403.046875C232.071875 343.1218750000001 282.44125 297.428125 342.659375 297.365625L742.771875 296.953125C799.0031250000001 296.89375 847.3531250000001 336.7875 857.9718750000001 392.009375L900.025 610.678125C913.921875 682.95 858.540625 749.9962499999999 784.94375 749.9962499999999H239.0325L227.1821875 870.11C226.1475 880.598125 218.2396875 889.105625 207.855 890.9028125L121.1884375 905.9028125zM272.808125 407.65L243.6571875 703.1212499999999H784.94375C829.1031250000001 703.1212499999999 862.33125 662.89375 853.990625 619.53125L811.940625 400.859375C805.5687499999999 367.728125 776.559375 343.790625 742.81875 343.828125L342.709375 344.240625C306.5771875000001 344.2781250000001 276.355625 371.69375 272.808125 407.65zM591.15625 591.871875C578.2125 591.871875 567.71875 581.38125 567.71875 568.434375C567.71875 555.490625 578.2125 544.996875 591.15625 544.996875H706.696875C719.640625 544.996875 730.134375 555.490625 730.134375 568.434375C730.134375 581.38125 719.640625 591.871875 706.696875 591.871875H591.15625zM300.6971875000001 199.890625C275.183125 199.890625 254.5928125 179.203125 254.5928125 153.7874999999999C254.5928125 128.3562499999999 275.1553125000001 107.640625 300.6971875000001 107.640625C326.2375 107.640625 346.8 128.3562499999999 346.8 153.7874999999999C346.8 179.203125 326.2125000000001 199.890625 300.6971875000001 199.890625zM770.7125 199.890625C745.1999999999999 199.890625 724.609375 179.203125 724.609375 153.7874999999999C724.609375 128.3562499999999 745.171875 107.640625 770.7125 107.640625C796.2 107.640625 816.859375 128.3 816.859375 153.7874999999999C816.859375 179.259375 796.171875 199.890625 770.7125 199.890625z" />
    <glyph glyph-name="check-square"
      unicode="&#xE80E;"
      horiz-adv-x="1000" d="M675.3468750000001 605.028125C684.5 595.875 684.5 581.034375 675.3468750000001 571.88125L477.596875 374.13125C468.44375 364.9812500000001 453.60625 364.9781250000001 444.453125 374.1281250000001L345.5375 473.003125C336.38125 482.15625 336.378125 496.99375 345.53125 506.15C354.68125 515.3031249999999 369.521875 515.3062500000001 378.675 506.15625L461.01875 423.846875L642.2 605.028125C651.353125 614.1812500000001 666.19375 614.1812500000001 675.3468750000001 605.028125zM192.745 807.255C259.9190625 874.4290625 364.596875 898.4375 510.415625 898.4375C656.2375000000001 898.4375 760.915625 874.4290625 828.0875 807.255C895.2624999999999 740.0809375 919.271875 635.403125 919.271875 489.584375C919.271875 343.7625 895.2624999999999 239.084375 828.0875 171.9125C760.915625 104.7375000000001 656.2375000000001 80.7281250000001 510.415625 80.7281250000001C364.596875 80.7281250000001 259.9190625 104.7375000000001 192.745 171.9125C125.5709375 239.084375 101.5625 343.7625 101.5625 489.584375C101.5625 635.403125 125.5709375 740.0809375 192.745 807.255zM225.890625 774.109375C172.6165625 720.8356249999999 148.4375 632.803125 148.4375 489.584375C148.4375 346.3625000000001 172.6165625 258.3312500000001 225.890625 205.0562500000001C279.164375 151.784375 367.196875 127.6031250000001 510.415625 127.6031250000001C653.6374999999999 127.6031250000001 741.6687499999999 151.784375 794.9437499999999 205.0562500000001C848.215625 258.3312500000001 872.3968749999999 346.3625000000001 872.3968749999999 489.584375C872.3968749999999 632.803125 848.215625 720.8356249999999 794.9437499999999 774.109375C741.6687499999999 827.3834375 653.6374999999999 851.5625 510.415625 851.5625C367.196875 851.5625 279.164375 827.3834375 225.890625 774.109375z" />
    <glyph glyph-name="check"
      unicode="&#xE80F;"
      horiz-adv-x="1000" d="M397.65625 264.84375C357.03125 264.84375 322.65625 299.21875 319.53125 302.34375L163.28125 458.59375C153.90625 467.96875 153.90625 483.59375 163.28125 492.9687499999999C172.65625 502.34375 188.28125 502.34375 197.65625 492.9687499999999L353.90625 336.71875C357.03125 330.46875 378.90625 311.71875 397.65625 311.71875C416.40625 311.71875 438.28125 330.46875 444.53125 336.71875L819.53125 711.71875C828.90625 721.09375 844.53125 721.09375 853.90625 711.71875C863.28125 702.34375 863.28125 686.71875 853.90625 677.34375L478.90625 302.34375C472.65625 299.21875 435.15625 264.84375 397.65625 264.84375z" />
    <glyph glyph-name="circle"
      unicode="&#xE810;"
      horiz-adv-x="1000" d="M500 851.5625C305.8375 851.5625 148.4375 694.1625 148.4375 500C148.4375 305.8375 305.8375 148.4375 500 148.4375C694.1625 148.4375 851.5625 305.8375 851.5625 500C851.5625 694.1625 694.1625 851.5625 500 851.5625zM101.5625 500C101.5625 720.0509374999999 279.9490625000001 898.4375 500 898.4375C720.05 898.4375 898.4375 720.0509374999999 898.4375 500C898.4375 279.9500000000001 720.05 101.5625 500 101.5625C279.9490625000001 101.5625 101.5625 279.9500000000001 101.5625 500z" />
    <glyph glyph-name="clock"
      unicode="&#xE811;"
      horiz-adv-x="1000" d="M192.745 807.255C259.9190625 874.4290625 364.596875 898.4375 510.415625 898.4375C656.2375000000001 898.4375 760.915625 874.4290625 828.0875 807.255C895.2624999999999 740.0809375 919.271875 635.403125 919.271875 489.584375C919.271875 343.7625 895.2624999999999 239.084375 828.0875 171.9125C760.915625 104.7375000000001 656.2375000000001 80.7281250000001 510.415625 80.7281250000001C364.596875 80.7281250000001 259.9190625 104.7375000000001 192.745 171.9125C125.5709375 239.084375 101.5625 343.7625 101.5625 489.584375C101.5625 635.403125 125.5709375 740.0809375 192.745 807.255zM225.890625 774.109375C172.6165625 720.8356249999999 148.4375 632.803125 148.4375 489.584375C148.4375 346.3625000000001 172.6165625 258.3312500000001 225.890625 205.0562500000001C279.164375 151.784375 367.196875 127.6031250000001 510.415625 127.6031250000001C653.6374999999999 127.6031250000001 741.6687499999999 151.784375 794.9437499999999 205.0562500000001C848.215625 258.3312500000001 872.3968749999999 346.3625000000001 872.3968749999999 489.584375C872.3968749999999 632.803125 848.215625 720.8356249999999 794.9437499999999 774.109375C741.6687499999999 827.3834375 653.6374999999999 851.5625 510.415625 851.5625C367.196875 851.5625 279.164375 827.3834375 225.890625 774.109375zM510.375 694.93875C523.31875 694.93875 533.8125 684.4468750000001 533.8125 671.5V503.103125L663.6750000000001 425.6281250000001C674.790625 418.9968750000001 678.428125 404.609375 671.796875 393.49375C665.1625 382.3781250000001 650.775 378.740625 639.6593750000001 385.375L498.36875 469.665625C491.28125 473.89375 486.9375 481.5406250000001 486.9375 489.79375V671.5C486.9375 684.4468750000001 497.43125 694.93875 510.375 694.93875z" />
    <glyph glyph-name="comments"
      unicode="&#xE812;"
      horiz-adv-x="1000" d="M674.3468750000001 505.7375C655.596875 505.7375 643.0968750000001 493.2375 643.0968750000001 474.4875C643.0968750000001 455.7375000000001 658.7218750000001 443.2375 674.3468750000001 443.2375C689.9718750000001 443.2375 705.5968750000001 455.7375000000001 705.5968750000001 474.4875C705.5968750000001 493.2375 693.096875 505.7375 674.3468750000001 505.7375zM508.728125 505.7375C489.978125 505.7375 477.478125 493.2375 477.478125 474.4875C477.478125 455.7375000000001 493.103125 443.2375 508.728125 443.2375C524.353125 443.2375 539.978125 455.7375000000001 539.978125 474.4875C539.978125 493.2375 527.478125 505.7375 508.728125 505.7375zM343.09375 505.7375C324.34375 505.7375 311.84375 493.2375 311.84375 474.4875C311.84375 455.7375000000001 327.46875 443.2375 343.09375 443.2375C358.71875 443.2375 374.34375 455.7375000000001 374.34375 474.4875C374.34375 493.2375 358.71875 505.7375 343.09375 505.7375zM821.215625 802.6078125C739.9656249999999 883.8578125 627.465625 930.7328125 511.840625 930.7328125C396.215625 930.7328125 283.714375 883.8578125 199.339375 802.6078125C71.214375 671.35625 33.714375 471.35625 111.839375 308.8562500000001C111.839375 302.60625 108.714375 274.4812500000001 105.589375 255.73125C96.214375 180.7312500000001 89.964375 124.4812499999999 118.089375 96.3562500000001C143.089375 71.3562500000001 199.339375 74.4812500000001 277.464375 83.8562499999999C296.214375 86.9812500000001 321.215625 90.1062500000001 327.465625 90.1062500000001C386.840625 61.9812499999999 449.340625 49.48125 511.840625 49.48125C627.465625 49.48125 739.9656249999999 93.2312499999999 824.340625 177.6062499999999C993.090625 352.6062500000001 993.090625 630.73125 821.215625 802.6078125zM789.965625 211.9812500000001C674.340625 96.3562500000001 496.215625 65.1062500000001 346.2156250000001 133.8562500000001C339.965625 136.9812500000001 333.715625 136.9812500000001 327.465625 136.9812500000001C314.9656250000001 136.9812500000001 296.214375 133.8562500000001 271.214375 130.7312499999999C243.089375 127.6062500000001 164.964375 115.1062499999999 152.464375 127.6062500000001C139.964375 140.1062499999999 149.339375 218.2312499999999 155.589375 246.3562500000001C161.839375 286.98125 164.964375 308.8562500000001 158.714375 324.4812500000001C86.839375 474.4812499999999 118.089375 652.60625 233.714375 768.2328125C308.714375 843.2328125 405.590625 883.8578125 511.840625 883.8578125C618.090625 883.8578125 714.965625 843.2328125 789.965625 768.2328125C943.090625 615.10625 943.090625 365.10625 789.965625 211.9812500000001z" />
    <glyph glyph-name="compare"
      unicode="&#xE813;"
      horiz-adv-x="1000" d="M311.798125 595.9C324.74375 595.9 335.234375 585.409375 335.234375 572.4625V293.559375C335.234375 280.615625 324.74375 270.121875 311.798125 270.121875C298.8540625 270.121875 288.360625 280.615625 288.360625 293.559375V572.4625C288.360625 585.409375 298.8540625 595.9 311.798125 595.9zM501.540625 729.3778125C514.484375 729.3778125 524.978125 718.8843750000001 524.978125 705.9403125V293.5281250000001C524.978125 280.584375 514.484375 270.0906250000001 501.540625 270.0906250000001C488.596875 270.0906250000001 478.103125 280.584375 478.103125 293.5281250000001V705.9403125C478.103125 718.8843750000001 488.596875 729.3778125 501.540625 729.3778125zM688.15625 448.515625C701.0999999999999 448.515625 711.59375 438.025 711.59375 425.078125V293.5437500000001C711.59375 280.5999999999999 701.0999999999999 270.1062500000001 688.15625 270.1062500000001C675.2125 270.1062500000001 664.71875 280.5999999999999 664.71875 293.5437500000001V425.078125C664.71875 438.025 675.2125 448.515625 688.15625 448.515625zM201.16875 798.83875C144.7253125 742.3953125 119.2778125 649.29375 119.2778125 498.465625C119.2778125 347.6375000000001 144.7253125 254.534375 201.16875 198.0906249999999C257.6121875 141.6468749999999 350.715625 116.1999999999999 501.540625 116.1999999999999C652.3687500000001 116.1999999999999 745.471875 141.6468749999999 801.915625 198.0906249999999C858.359375 254.534375 883.80625 347.6375000000001 883.80625 498.465625C883.80625 649.29375 858.359375 742.3953125 801.915625 798.83875C745.471875 855.2825 652.3687500000001 880.7296875 501.540625 880.7296875C350.715625 880.7296875 257.6121875 855.2825 201.16875 798.83875zM168.023125 831.984375C238.366875 902.328125 348.115625 927.6046875 501.540625 927.6046875C654.96875 927.6046875 764.71875 902.328125 835.0625 831.984375C905.40625 761.6409375000001 930.68125 651.89375 930.68125 498.465625C930.68125 345.0375 905.40625 235.290625 835.0625 164.9468750000001C764.71875 94.603125 654.96875 69.3249999999999 501.540625 69.3249999999999C348.115625 69.3249999999999 238.366875 94.603125 168.023125 164.9468750000001C97.679375 235.290625 72.4028125 345.0375 72.4028125 498.465625C72.4028125 651.89375 97.679375 761.6409375000001 168.023125 831.984375z" />
    <glyph glyph-name="content"
      unicode="&#xE814;"
      horiz-adv-x="1000" d="M331.390625 335.571875C331.390625 348.515625 341.8843750000001 359.009375 354.828125 359.009375H655.6625C668.6062499999999 359.009375 679.1 348.515625 679.1 335.571875C679.1 322.6281250000001 668.6062499999999 312.134375 655.6625 312.134375H354.828125C341.8843750000001 312.134375 331.390625 322.6281250000001 331.390625 335.571875zM331.390625 492.225C331.390625 505.16875 341.8843750000001 515.6625 354.828125 515.6625H655.6625C668.6062499999999 515.6625 679.1 505.16875 679.1 492.225C679.1 479.28125 668.6062499999999 468.7875 655.6625 468.7875H354.828125C341.8843750000001 468.7875 331.390625 479.28125 331.390625 492.225zM331.390625 648.865625C331.390625 661.809375 341.8843750000001 672.303125 354.828125 672.303125H469.61875C482.5625 672.303125 493.05625 661.809375 493.05625 648.865625C493.05625 635.921875 482.5625 625.428125 469.61875 625.428125H354.828125C341.8843750000001 625.428125 331.390625 635.921875 331.390625 648.865625zM215.375 806.4293749999999C276.905625 874.26 373.01875 898.4375 505.8749999999999 898.4375C638.75 898.4375 734.865625 874.260625 796.390625 806.4284375C857.290625 739.286875 878.9375 635.034375 878.9375 489.584375C878.9375 344.13125 857.290625 239.88125 796.390625 172.7375C734.865625 104.90625 638.75 80.7281250000001 505.8749999999999 80.7281250000001C373.01875 80.7281250000001 276.905625 104.90625 215.375 172.7375C154.47 239.8781250000001 132.8125 344.13125 132.8125 489.584375C132.8125 635.0374999999999 154.47 739.288125 215.375 806.4293749999999zM250.09375 774.9353125C201.738125 721.6284375 179.6875 633.171875 179.6875 489.584375C179.6875 345.99375 201.738125 257.5375 250.09375 204.2312499999999C297.82375 151.615625 376.521875 127.6031250000001 505.8749999999999 127.6031250000001C635.25 127.6031250000001 713.946875 151.615625 761.671875 204.2312499999999C810.021875 257.5375 832.0625 345.99375 832.0625 489.584375C832.0625 633.175 810.021875 721.63 761.671875 774.93625C713.946875 827.551875 635.25 851.5625 505.8749999999999 851.5625C376.521875 851.5625 297.82375 827.5525 250.09375 774.9353125z" />
    <glyph glyph-name="credit-card"
      unicode="&#xE815;"
      horiz-adv-x="1000" d="M119.61125 628.378125H880.3875C865.86875 698.3653125000001 787.5124999999999 757.8125 683.46875 757.8125H316.53125C212.4865625 757.8125 134.131875 698.3653125000001 119.61125 628.378125zM882.8125 581.503125H117.1875V363.8093750000001C117.1875 284.196875 201.03 210.9375 316.53125 210.9375H683.46875C798.96875 210.9375 882.8125 284.196875 882.8125 363.8093750000001V581.503125zM70.3125 604.940625C70.3125 720.0709375 185.9578125 804.6875 316.53125 804.6875H683.46875C814.040625 804.6875 929.6875 720.0709375 929.6875 604.940625V363.8093750000001C929.6875 248.678125 814.040625 164.0625 683.46875 164.0625H316.53125C185.9578125 164.0625 70.3125 248.678125 70.3125 363.8093750000001V604.940625zM445.3125 312.5C445.3125 325.44375 455.80625 335.9375 468.75 335.9375H531.25C544.19375 335.9375 554.6875 325.44375 554.6875 312.5C554.6875 299.55625 544.19375 289.0625 531.25 289.0625H468.75C455.80625 289.0625 445.3125 299.55625 445.3125 312.5zM601.5625 312.5C601.5625 325.44375 612.05625 335.9375 625 335.9375H781.25C794.19375 335.9375 804.6875 325.44375 804.6875 312.5C804.6875 299.55625 794.19375 289.0625 781.25 289.0625H625C612.05625 289.0625 601.5625 299.55625 601.5625 312.5z" />
    <glyph glyph-name="desktop"
      unicode="&#xE816;"
      horiz-adv-x="1000" d="M351.5625 156.25C351.5625 169.19375 362.0562500000001 179.6875 375 179.6875H625C637.94375 179.6875 648.4375 169.19375 648.4375 156.25C648.4375 143.30625 637.94375 132.8125 625 132.8125H375C362.0562500000001 132.8125 351.5625 143.30625 351.5625 156.25zM168.796875 797.7259375C238.8628125 848.9278125 347.3 867.1875 500 867.1875C652.6999999999999 867.1875 761.1375 848.9278125 831.203125 797.7259375C903.546875 744.858125 929.6875 661.3 929.6875 546.875C929.6875 432.4500000000001 903.546875 348.890625 831.203125 296.025C761.1375 244.821875 652.6999999999999 226.5625 500 226.5625C347.3 226.5625 238.8628125 244.821875 168.796875 296.025C96.4515625 348.890625 70.3125 432.4500000000001 70.3125 546.875C70.3125 661.3 96.4515625 744.858125 168.796875 797.7259375zM196.4540625 759.879375C141.840625 719.9696875 117.1875 655.090625 117.1875 546.875C117.1875 438.659375 141.840625 373.78125 196.4540625 333.8718750000001C253.3468750000001 292.2937500000001 348.034375 273.4375 500 273.4375C651.965625 273.4375 746.653125 292.2937500000001 803.546875 333.8718750000001C858.159375 373.78125 882.8125 438.659375 882.8125 546.875C882.8125 655.090625 858.159375 719.9696875 803.546875 759.879375C746.653125 801.455 651.965625 820.3125 500 820.3125C348.034375 820.3125 253.3468750000001 801.455 196.4540625 759.879375z" />
    <glyph glyph-name="dot-circle"
      unicode="&#xE817;"
      horiz-adv-x="1000" d="M500 851.5625C305.8375 851.5625 148.4375 694.1625 148.4375 500C148.4375 305.8375 305.8375 148.4375 500 148.4375C694.1625 148.4375 851.5625 305.8375 851.5625 500C851.5625 694.1625 694.1625 851.5625 500 851.5625zM101.5625 500C101.5625 720.0509374999999 279.9490625000001 898.4375 500 898.4375C720.05 898.4375 898.4375 720.0509374999999 898.4375 500C898.4375 279.9500000000001 720.05 101.5625 500 101.5625C279.9490625000001 101.5625 101.5625 279.9500000000001 101.5625 500zM500 632.8125C426.65 632.8125 367.1875 573.35 367.1875 500C367.1875 426.65 426.65 367.1875 500 367.1875C573.35 367.1875 632.8125 426.65 632.8125 500C632.8125 573.35 573.35 632.8125 500 632.8125zM320.3125 500C320.3125 599.2375 400.7625000000001 679.6875 500 679.6875C599.2375 679.6875 679.6875 599.2375 679.6875 500C679.6875 400.7625000000001 599.2375 320.3125 500 320.3125C400.7625000000001 320.3125 320.3125 400.7625000000001 320.3125 500z" />
    <glyph glyph-name="ellipsis-h"
      unicode="&#xE818;"
      horiz-adv-x="1000" d="M500 570.3125C461.16875 570.3125 429.6875 538.83125 429.6875 500C429.6875 461.16875 461.16875 429.6875 500 429.6875C538.83125 429.6875 570.3125 461.16875 570.3125 500C570.3125 538.83125 538.83125 570.3125 500 570.3125zM382.8125 500C382.8125 564.721875 435.278125 617.1875 500 617.1875C564.7218750000001 617.1875 617.1875 564.721875 617.1875 500C617.1875 435.278125 564.7218750000001 382.8125 500 382.8125C435.278125 382.8125 382.8125 435.278125 382.8125 500zM187.5 570.3125C148.6675 570.3125 117.1875 538.83125 117.1875 500C117.1875 461.16875 148.6675 429.6875 187.5 429.6875C226.3325 429.6875 257.8125 461.16875 257.8125 500C257.8125 538.83125 226.3325 570.3125 187.5 570.3125zM70.3125 500C70.3125 564.721875 122.7790625 617.1875 187.5 617.1875C252.2209375 617.1875 304.6875 564.721875 304.6875 500C304.6875 435.278125 252.2209375 382.8125 187.5 382.8125C122.7790625 382.8125 70.3125 435.278125 70.3125 500zM812.5 570.3125C773.66875 570.3125 742.1875 538.83125 742.1875 500C742.1875 461.16875 773.66875 429.6875 812.5 429.6875C851.33125 429.6875 882.8125 461.16875 882.8125 500C882.8125 538.83125 851.33125 570.3125 812.5 570.3125zM695.3125 500C695.3125 564.721875 747.7781249999999 617.1875 812.5 617.1875C877.2218750000001 617.1875 929.6875 564.721875 929.6875 500C929.6875 435.278125 877.2218750000001 382.8125 812.5 382.8125C747.7781249999999 382.8125 695.3125 435.278125 695.3125 500z" />
    <glyph glyph-name="ellipsis-v"
      unicode="&#xE819;"
      horiz-adv-x="1000" d="M500 570.3125C461.16875 570.3125 429.6875 538.83125 429.6875 500C429.6875 461.16875 461.16875 429.6875 500 429.6875C538.83125 429.6875 570.3125 461.16875 570.3125 500C570.3125 538.83125 538.83125 570.3125 500 570.3125zM382.8125 500C382.8125 564.721875 435.278125 617.1875 500 617.1875C564.7218750000001 617.1875 617.1875 564.721875 617.1875 500C617.1875 435.278125 564.7218750000001 382.8125 500 382.8125C435.278125 382.8125 382.8125 435.278125 382.8125 500zM500 882.8125C461.16875 882.8125 429.6875 851.3325 429.6875 812.5C429.6875 773.6675 461.16875 742.1875 500 742.1875C538.83125 742.1875 570.3125 773.6675 570.3125 812.5C570.3125 851.3325 538.83125 882.8125 500 882.8125zM382.8125 812.5C382.8125 877.2209375 435.278125 929.6875 500 929.6875C564.7218750000001 929.6875 617.1875 877.2209375 617.1875 812.5C617.1875 747.7790625 564.7218750000001 695.3125 500 695.3125C435.278125 695.3125 382.8125 747.7790625 382.8125 812.5zM500 257.8125C461.16875 257.8125 429.6875 226.33125 429.6875 187.5C429.6875 148.6687500000001 461.16875 117.1875 500 117.1875C538.83125 117.1875 570.3125 148.6687500000001 570.3125 187.5C570.3125 226.33125 538.83125 257.8125 500 257.8125zM382.8125 187.5C382.8125 252.2218750000001 435.278125 304.6875 500 304.6875C564.7218750000001 304.6875 617.1875 252.2218750000001 617.1875 187.5C617.1875 122.7781249999999 564.7218750000001 70.3125 500 70.3125C435.278125 70.3125 382.8125 122.7781249999999 382.8125 187.5z" />
    <glyph glyph-name="envelope"
      unicode="&#xE81A;"
      horiz-adv-x="1000" d="M859.40625 736.2440625L875 718.7478125C890.596875 701.251875 890.5906249999999 701.24875 890.5906249999999 701.24875L890.5625 701.2228125L890.171875 700.874375L888.9812499999999 699.8199999999999C887.9375 698.8981249999999 886.40625 697.5453125 884.41875 695.8021875C880.44375 692.3162500000001 874.653125 687.26875 867.35625 680.9875C852.7624999999999 668.4281249999999 832.109375 650.921875 807.84375 631.090625C766.5562500000001 597.3499999999999 714.403125 556.5531249999999 663.65625 521.975C671.3312500000001 515.4468750000001 679.5625 508.521875 688.246875 501.215625C691.03125 498.8749999999999 693.8625000000001 496.49375 696.7375 494.071875C718.24375 475.9625 741.928125 455.884375 765.665625 434.553125C812.871875 392.1343750000001 861.559375 343.6625 894.503125 294.25L855.5 268.2468750000001C825.940625 312.584375 780.878125 357.8625 734.334375 399.6875C711.196875 420.4781250000001 688.00625 440.14375 666.54375 458.215625C663.709375 460.603125 660.896875 462.96875 658.11875 465.30625C645.48125 475.9375 633.490625 486.0250000000001 622.7 495.3375C602.196875 482.7156249999999 582.225 471.6218749999999 563.7375 463.153125C541.4031249999999 452.921875 518.696875 445.3093750000001 498.875 445.3093750000001C479.259375 445.3093750000001 456.896875 452.765625 434.928125 462.803125C416.7937500000001 471.0906249999999 397.234375 481.94375 377.159375 494.303125C367.65 486.228125 357.1968750000001 477.521875 346.190625 468.35625C341.99375 464.8625 337.7156250000001 461.3000000000001 333.378125 457.6812500000001C311.9428125 439.7875 288.7603125 420.23125 265.6371875 399.521875C219.1178125 357.85625 174.056875 312.5812500000001 144.5015625 268.2468750000001L105.499375 294.25C138.4440625 343.665625 187.133125 392.1375000000001 234.36375 434.4406250000001C258.115625 455.7125 281.8078125 475.69375 303.340625 493.665625C307.81875 497.4031249999999 312.190625 501.04375 316.44375 504.5875C323.3375 510.328125 329.921875 515.809375 336.14375 521.03125C285.5415625 555.625 233.46625 596.6 192.2084375 630.5406250000001C167.9221875 650.51875 147.2409375 668.18125 132.621875 680.853125C125.3103125 687.1937499999999 119.5103125 692.2890625 115.528125 695.8087499999999C113.536875 697.5690625 111.9996875 698.9353125 110.955 699.8665625L109.7621875 700.931875L109.3403125 701.31C109.3403125 701.31 109.3365625 701.3134375 125.0003125 718.7478125L140.66375 736.1828125L142.1471875 734.856875C143.1446875 733.9675 144.6325 732.645 146.5725 730.9303125C150.4525 727.500625 156.139375 722.504375 163.3275 716.2725C177.7075 703.8059375 198.075 686.4124999999999 221.988125 666.7406249999999C269.96 627.2750000000001 331.63125 579.1125 387.678125 543.071875C411.921875 527.484375 434.6375 514.475 454.409375 505.4375C474.790625 496.1250000000001 489.621875 492.184375 498.875 492.184375C508.271875 492.184375 523.4031249999999 496.2375 544.2156249999999 505.76875C564.403125 515.015625 587.6 528.309375 612.334375 544.1937499999999C668.5593749999999 580.309375 730.2468749999999 628.215625 778.184375 667.3875C802.08125 686.915625 822.421875 704.163125 836.78125 716.5184375C843.95625 722.6946875 849.6343750000001 727.6446874999999 853.509375 731.041875C855.4437499999999 732.7403125000001 856.928125 734.0503125 857.9250000000001 734.9309375L859.046875 735.9246875L859.40625 736.2440625zM198.5140625 775.7540625C142.5303125 724.079375 117.1875 638.971875 117.1875 500C117.1875 361.046875 142.53 275.9406250000001 198.5146875 224.2593750000001C255.0621875 172.0593750000001 348.6500000000001 148.4375 500 148.4375C651.35 148.4375 744.9375 172.0593750000001 801.484375 224.2593750000001C857.46875 275.9406250000001 882.8125 361.046875 882.8125 500C882.8125 638.971875 857.46875 724.079375 801.4875000000001 775.7540625C744.9375 827.9490625 651.353125 851.5625 500 851.5625C348.646875 851.5625 255.0609375 827.9490625 198.5140625 775.7540625zM166.7203125 810.19875C237.1265625 875.18625 346.665625 898.4375 500 898.4375C653.334375 898.4375 762.875 875.18625 833.2781249999999 810.19875C904.25 744.6912500000001 929.6875 642.296875 929.6875 500C929.6875 357.721875 904.25 255.328125 833.28125 189.81875C762.875 124.8249999999999 653.334375 101.5625 500 101.5625C346.6625 101.5625 237.1253125 124.8249999999999 166.7196875 189.81875C95.75125 255.328125 70.3125 357.721875 70.3125 500C70.3125 642.296875 95.7509375 744.6912500000001 166.7203125 810.19875z" />
    <glyph glyph-name="exchange"
      unicode="&#xE81B;"
      horiz-adv-x="1000" d="M709.378125 274.9968750000001H184.378125C171.878125 274.9968750000001 159.378125 284.3718750000001 159.378125 299.9968750000001C159.378125 315.6218750000001 168.753125 324.996875 184.378125 324.996875H709.378125C721.8781250000001 324.996875 734.378125 315.6218750000001 734.378125 299.9968750000001C734.378125 284.3718750000001 721.8781250000001 274.9968750000001 709.378125 274.9968750000001zM353.125 106.25C350 106.25 346.875 106.253125 340.625 109.378125C321.875 118.7531250000001 156.25 209.375 156.25 300C156.25 390.625 321.875 481.25 340.625 490.625C353.125 496.8749999999999 365.625 493.75 371.875 481.25C378.125 468.75 375 456.25 362.5 450C300 418.75 203.125 346.875 203.125 300C203.125 250 309.375 178.125 362.5 150C375 143.75 378.125 131.25 371.875 118.75C368.75 109.375 362.5 106.25 353.125 106.25zM800 690.6234374999999H275C262.5 690.6234374999999 250 699.9984375 250 715.6234375C250 731.2484375 259.375 740.6234374999999 275 740.6234374999999H800C812.5 740.6234374999999 825 731.2484375 825 715.6234375C825 699.9984375 812.5 690.6234374999999 800 690.6234374999999zM631.2468749999999 518.75C621.8718749999999 518.75 615.6218749999999 521.875 609.371875 531.25C603.121875 543.75 606.2468749999999 556.25 618.746875 562.5C681.246875 593.75 778.1218749999999 665.625 778.1218749999999 712.4996874999999C778.1218749999999 759.3746874999999 681.246875 828.125 618.746875 862.5C606.2468749999999 868.75 603.121875 881.25 609.371875 893.75C615.6218749999999 906.25 628.121875 909.375 640.621875 903.125C659.371875 893.75 824.9968749999999 803.1246874999999 824.9968749999999 712.4996874999999C824.9968749999999 621.875 659.371875 531.25 640.621875 521.875C637.4968749999999 521.875 634.371875 518.75 631.2468749999999 518.75z" />
    <glyph glyph-name="exclamation-triangle"
      unicode="&#xE81C;"
      horiz-adv-x="1000" d="M387.328125 788.618125C346.09375 742.6434375 299.4596875000001 671.309375 242.8615625 570.659375C240.2571875 566.028125 237.2446875 560.7406249999999 233.904375 554.8812499999999C215.075 521.840625 185.87125 470.5968750000001 161.165625 416.021875C146.643125 383.94375 133.98375 351.3625000000001 126.0034375 321.296875C117.918125 290.840625 115.2065625 265.028125 118.64125 245.6125C122.1834375 225.5875000000001 129.9253125 210.9718750000001 142.32125 199.409375C155.15125 187.446875 174.5321875 177.30625 203.6903125 169.39375C262.7421875 153.3687500000001 353.8625 148.4375 489.58125 148.4375C625.3 148.4375 716.43125 153.3687500000001 775.490625 169.39375C804.6531249999999 177.30625 824.034375 187.446875 836.859375 199.409375C849.2531250000001 210.9656250000001 856.9875000000001 225.58125 860.521875 245.6L860.521875 245.6125C863.95625 265.028125 861.2468749999999 290.840625 853.1593750000001 321.296875C845.18125 351.3625000000001 832.521875 383.94375 817.9968749999999 416.021875C793.29375 470.5968750000001 764.0875 521.840625 745.259375 554.878125C741.9187499999999 560.7406249999999 738.90625 566.028125 736.3031249999999 570.659375C679.703125 671.309375 633.071875 742.6434375 591.834375 788.618125C550.3125 834.915625 517.78125 851.5625 489.58125 851.5625C461.38125 851.5625 428.853125 834.915625 387.328125 788.618125zM352.43125 819.91625C396.9781250000001 869.5828125 441.26875 898.4375 489.58125 898.4375C537.89375 898.4375 582.1843749999999 869.5828125 626.7312499999999 819.91625C671.5656250000001 769.926875 720.2531250000001 694.8353125000001 777.159375 593.634375L777.1625 593.634375C779.625 589.25 782.528125 584.159375 785.784375 578.45C804.5375 545.5562500000001 834.9968749999999 492.13125 860.7 435.353125C875.80625 401.9875000000001 889.575 366.81875 898.465625 333.325C907.253125 300.228125 911.853125 266.684375 906.68125 237.446875C901.628125 208.815625 889.64375 184.540625 868.8312500000001 165.1312499999999C848.45 146.1218749999999 821.1374999999999 133.2093749999999 787.765625 124.1531249999999C721.75625 106.24375 624.465625 101.5625 489.58125 101.5625C354.7 101.5625 257.4178125000001 106.24375 191.4134375 124.15625C158.0434375 133.2093749999999 130.733125 146.1218749999999 110.351875 165.128125C89.5365625 184.540625 77.5475 208.815625 72.4828125 237.446875C67.310625 266.684375 71.9115625 300.228125 80.6975 333.325C89.588125 366.81875 103.358125 401.9875000000001 118.4625 435.353125C144.165625 492.13125 174.6265625 545.5562500000001 193.38 578.45C196.635625 584.159375 199.5384375 589.25 202.0021875 593.634375L202.0034375 593.634375C258.9115625 694.8353125000001 307.596875 769.926875 352.43125 819.91625zM489.59375 669.271875C502.5375 669.271875 513.03125 658.78125 513.03125 645.834375V483.54375C513.03125 470.6 502.5375 460.10625 489.59375 460.10625C476.65 460.10625 466.15625 470.6 466.15625 483.54375V645.834375C466.15625 658.78125 476.65 669.271875 489.59375 669.271875zM465.971875 337.70625C465.971875 350.6531250000001 476.465625 361.14375 489.409375 361.14375H489.784375C502.728125 361.14375 513.2218750000001 350.6531250000001 513.2218750000001 337.70625C513.2218750000001 324.7625 502.728125 314.26875 489.784375 314.26875H489.409375C476.465625 314.26875 465.971875 324.7625 465.971875 337.70625z" />
    <glyph glyph-name="exclamation"
      unicode="&#xE81D;"
      horiz-adv-x="1000" d="M500 773.4375C512.94375 773.4375 523.4375 762.9440625 523.4375 750V437.5C523.4375 424.55625 512.94375 414.0625 500 414.0625C487.05625 414.0625 476.5625 424.55625 476.5625 437.5V750C476.5625 762.9440625 487.05625 773.4375 500 773.4375zM500 281.25C517.259375 281.25 531.25 295.240625 531.25 312.5C531.25 329.759375 517.259375 343.75 500 343.75C482.740625 343.75 468.75 329.759375 468.75 312.5C468.75 295.240625 482.740625 281.25 500 281.25z" />
    <glyph glyph-name="eye-slash"
      unicode="&#xE81E;"
      horiz-adv-x="1000" d="M268.75 233.5875C265.625 233.5875 259.375 233.5875 256.25 236.7125C159.375 302.3375000000001 93.75 402.3375 93.75 489.8375C93.75 639.8375 275 817.9625 503.1250000000001 817.9625C590.625 817.9625 675 792.9625 750 742.9625000000001C759.375 736.7125 762.5 721.0875 756.25 711.7125000000001C750 702.3375 734.375 699.2125000000001 725 705.4625C659.375 749.2125 584.375 774.2125 506.25 774.2125C312.5 774.2125 143.75 621.0875000000001 143.75 492.9625C143.75 421.0875 200 336.7125 287.5 280.4625C296.875 274.2125 300 258.5875 293.75 249.2125C284.375 236.7125 278.125 233.5875 268.75 233.5875zM503.1250000000001 161.71875C465.625 161.71875 425 167.96875 387.5 177.34375C375 180.46875 368.75 192.96875 371.875 205.46875C375 217.96875 387.5 224.21875 400 221.09375C434.375 211.71875 468.75 205.46875 503.1250000000001 205.46875C696.875 205.46875 865.625 358.59375 865.625 486.71875C865.625 527.34375 846.875 574.21875 812.5 617.96875C803.125 627.34375 806.25 642.96875 815.625 652.34375C825 661.71875 840.625 658.59375 850 649.21875C890.625 596.09375 912.5 539.84375 912.5 486.71875C912.5 342.96875 728.125 161.71875 503.1250000000001 161.71875zM409.378125 374.2125C403.128125 374.2125 396.878125 377.3375 393.753125 380.4625000000001C365.628125 408.5875 346.878125 449.2125 346.878125 489.8375C346.878125 530.4625 362.503125 571.0875000000001 390.628125 599.2125C418.753125 627.3375 459.378125 646.0875 500.003125 646.0875C540.6281250000001 646.0875 581.2531250000001 630.4625 609.378125 599.2125C618.7531250000001 589.8375000000001 618.7531250000001 574.2125000000001 609.378125 564.8375C600.003125 555.4625000000001 584.378125 555.4625000000001 575.003125 564.8375C556.2531250000001 583.5875 528.128125 599.2125 496.878125 596.0875C468.753125 596.0875 440.628125 583.5875 421.878125 564.8375C400.003125 542.9625000000001 390.628125 517.9625 390.628125 486.7125C390.628125 458.5875000000001 403.128125 430.4625 421.878125 411.7125000000001C431.253125 402.3375 431.253125 386.7125 421.878125 377.3375C421.878125 377.3375 415.628125 374.2125 409.378125 374.2125zM524.996875 336.71875C512.4968749999999 336.71875 503.121875 346.09375 503.121875 355.46875C499.996875 367.96875 509.371875 380.46875 521.8718749999999 383.59375C565.621875 392.96875 599.9968749999999 427.34375 609.371875 471.09375C612.496875 483.59375 624.996875 492.9687499999999 637.4968749999999 489.84375C649.996875 486.71875 659.371875 474.21875 656.246875 461.71875C643.746875 399.21875 593.746875 349.21875 531.246875 336.71875C528.1218749999999 336.71875 528.1218749999999 336.71875 524.996875 336.71875zM175 139.84375C168.75 139.84375 162.5 142.96875 159.375 146.09375C150 155.46875 150 171.09375 159.375 180.46875L815.625 836.71875C825 846.09375 840.625 846.09375 850 836.71875C859.375 827.34375 859.375 811.71875 850 802.34375L193.75 146.09375C187.5 139.84375 181.25 139.84375 175 139.84375z" />
    <glyph glyph-name="eye"
      unicode="&#xE81F;"
      horiz-adv-x="1000" d="M510.503125 616.5625C450.69375 616.5625 402.190625 568.090625 402.190625 508.25C402.190625 448.44375 450.696875 399.9375 510.503125 399.9375C570.309375 399.9375 618.815625 448.44375 618.815625 508.25C618.815625 568.090625 570.315625 616.5625 510.503125 616.5625zM355.315625 508.25C355.315625 593.990625 424.815625 663.4375 510.503125 663.4375C596.19375 663.4375 665.690625 593.990625 665.690625 508.25C665.690625 422.55625 596.196875 353.0625 510.503125 353.0625C424.809375 353.0625 355.315625 422.55625 355.315625 508.25zM222.774375 729.5231249999999C296.289375 791.6765625 397.909375 835.9375 510.4999999999999 835.9375C623.065625 835.9375 724.684375 791.7109375 798.20625 729.5725C871.1187500000001 667.95 919.4375 585.909375 919.4375 508.25C919.4375 430.5906250000001 871.1187500000001 348.5500000000001 798.20625 286.928125C724.684375 224.790625 623.065625 180.5625 510.4999999999999 180.5625C397.909375 180.5625 296.289375 224.821875 222.774375 286.978125C149.8721875 348.6125 101.5625 430.65 101.5625 508.25C101.5625 585.8499999999999 149.8721875 667.8875 222.774375 729.5231249999999zM253.038125 693.7268750000001C186.419375 637.403125 148.4375 567.3187499999999 148.4375 508.25C148.4375 449.18125 186.419375 379.096875 253.038125 322.771875C319.04375 266.96875 410.175 227.4375 510.4999999999999 227.4375C610.8093749999999 227.4375 701.940625 266.9406250000001 767.95 322.728125C834.56875 379.0343750000001 872.5625 449.11875 872.5625 508.25C872.5625 567.38125 834.56875 637.465625 767.95 693.77125C701.940625 749.56 610.8093749999999 789.0625 510.4999999999999 789.0625C410.175 789.0625 319.04375 749.5315625000001 253.038125 693.7268750000001z" />
    <glyph glyph-name="favorites-f"
      unicode="&#xE820;"
      horiz-adv-x="1000" d="M266.4856250000001 870.4321875C319.6 881.0734375 374.759375 872.9909375 422.5875 847.55875C453.14375 831.310625 479.503125 808.6215625 500 781.3184375C520.4968749999999 808.62125 546.85625 831.3103125 577.4125 847.55875C625.240625 872.9909375 680.4 881.0734375 733.515625 870.4321875C786.628125 859.790625 834.4187499999999 831.0825 868.75625 789.188125C903.096875 747.29375 921.865625 694.799375 921.875 640.6312499999999C921.875 495.315625 832.70625 366.590625 740.603125 276.490625C694.05 230.9500000000001 645.3875 193.90625 603.934375 168.0625C583.228125 155.15 563.9 144.775 547.1875 137.5093750000001C531.6593750000001 130.759375 514.6625 125 500 125C485.3375 125 468.340625 130.759375 452.8125 137.5093750000001C436.1 144.775 416.771875 155.15 396.065625 168.0625C354.6125 193.90625 305.9496875000001 230.9500000000001 259.3971875000001 276.490625C167.29375 366.590625 78.125 495.309375 78.125 640.625C78.1340625 694.7940625 96.9040625 747.29375 131.2434375 789.188125C165.5825 831.0825 213.3715625 859.790625 266.4856250000001 870.4321875z" />
    <glyph glyph-name="favorites-o"
      unicode="&#xE821;"
      horiz-adv-x="1000" d="M493.75 140.628125C412.5 140.628125 78.125 375.003125 78.125 650.003125C78.125 703.1268749999999 96.875 753.126875 128.125 793.7518749999999C159.375 834.3768749999999 206.25 862.501875 259.375 871.8768749999999C309.375 881.251875 365.625 875.001875 409.375 850.0018749999999C440.625 831.251875 468.75 806.251875 490.625 778.1268749999999C512.5 809.3768749999999 537.5 834.3768749999999 571.875 850.0018749999999C618.75 875.001875 671.875 881.251875 721.875 871.8768749999999C771.875 862.501875 818.75 834.3768749999999 853.125 793.7518749999999C887.5 753.126875 903.125 703.1268749999999 903.125 650.003125C906.25 375.003125 571.875 140.628125 493.75 140.628125zM303.125 828.126875C290.625 828.126875 278.125 828.126875 268.75 825.0018749999999C228.125 815.626875 190.625 793.7518749999999 165.625 762.5018749999999C140.625 731.2518749999999 125 690.6268749999999 125 646.878125C125 400.0031250000001 437.5 187.503125 493.75 187.503125C550 187.503125 859.375 403.128125 859.375 650.003125C859.375 690.6268749999999 843.75 731.2518749999999 818.75 762.5018749999999C793.75 793.7518749999999 756.25 815.626875 715.625 825.0018749999999C675 834.3768749999999 631.25 828.126875 596.875 806.251875C559.375 787.5018749999999 531.25 756.2518749999999 515.625 715.6268749999999C509.375 696.8768749999999 478.125 696.8768749999999 471.875 715.6268749999999C453.125 756.2518749999999 425 787.5018749999999 390.625 806.251875C362.5 821.876875 334.375 828.126875 303.125 828.126875z" />
    <glyph glyph-name="favorites"
      unicode="&#xE822;"
      horiz-adv-x="1000" d="M493.75 140.628125C412.5 140.628125 78.125 375.003125 78.125 650.003125C78.125 703.1268749999999 96.875 753.126875 128.125 793.7518749999999C159.375 834.3768749999999 206.25 862.501875 259.375 871.8768749999999C309.375 881.251875 365.625 875.001875 409.375 850.0018749999999C440.625 831.251875 468.75 806.251875 490.625 778.1268749999999C512.5 809.3768749999999 537.5 834.3768749999999 571.875 850.0018749999999C618.75 875.001875 671.875 881.251875 721.875 871.8768749999999C771.875 862.501875 818.75 834.3768749999999 853.125 793.7518749999999C887.5 753.126875 903.125 703.1268749999999 903.125 650.003125C906.25 375.003125 571.875 140.628125 493.75 140.628125zM303.125 828.126875C290.625 828.126875 278.125 828.126875 268.75 825.0018749999999C228.125 815.626875 190.625 793.7518749999999 165.625 762.5018749999999C140.625 731.2518749999999 125 690.6268749999999 125 646.878125C125 400.0031250000001 437.5 187.503125 493.75 187.503125C550 187.503125 859.375 403.128125 859.375 650.003125C859.375 690.6268749999999 843.75 731.2518749999999 818.75 762.5018749999999C793.75 793.7518749999999 756.25 815.626875 715.625 825.0018749999999C675 834.3768749999999 631.25 828.126875 596.875 806.251875C559.375 787.5018749999999 531.25 756.2518749999999 515.625 715.6268749999999C509.375 696.8768749999999 478.125 696.8768749999999 471.875 715.6268749999999C453.125 756.2518749999999 425 787.5018749999999 390.625 806.251875C362.5 821.876875 334.375 828.126875 303.125 828.126875z" />
    <glyph glyph-name="file-code-o"
      unicode="&#xE823;"
      horiz-adv-x="1000" d="M368.746875 141.296875C365.621875 141.296875 362.496875 141.296875 359.371875 141.296875C346.871875 144.421875 340.6218750000001 160.046875 346.871875 172.546875L596.871875 860.048125C599.9968749999999 872.548125 615.6218749999999 878.798125 628.121875 872.548125C640.621875 869.423125 646.8718749999999 853.798125 640.621875 841.298125L390.621875 153.796875C384.371875 147.546875 378.121875 141.296875 368.746875 141.296875zM256.25 331.921875C253.125 331.921875 250 331.921875 243.75 335.046875C228.125 344.421875 62.5 435.046875 62.5 525.671875C62.5 616.296875 228.125 706.92125 246.875 716.2962500000001C259.375 722.54625 271.875 719.42125 278.125 706.92125C284.375 694.42125 281.25 681.921875 268.75 675.671875C206.25 644.421875 109.375 572.546875 109.375 525.671875C109.375 475.671875 215.625 403.796875 268.75 375.671875C281.25 369.421875 284.375 356.921875 278.125 344.421875C271.875 338.171875 265.625 331.921875 256.25 331.921875zM743.75 331.921875C734.375 331.921875 728.125 335.046875 721.875 344.421875C715.625 356.921875 718.75 369.421875 731.25 375.671875C793.75 406.921875 890.625 478.796875 890.625 525.671875C890.625 572.546875 793.75 641.296875 731.25 675.671875C718.75 681.921875 715.625 694.42125 721.875 706.92125C728.125 719.42125 740.625 722.54625 753.125 716.2962500000001C771.875 706.92125 937.5 616.296875 937.5 525.671875C937.5 435.046875 771.875 344.421875 753.125 335.046875C750 335.046875 746.875 331.921875 743.75 331.921875z" />
    <glyph glyph-name="filter"
      unicode="&#xE824;"
      horiz-adv-x="1000" d="M165.3471875 806.4759375C154.9196875 793.7328125 148.4375 775.189375 148.4375 745.7990625C148.4375 714.6581249999999 162.97375 684.5062499999999 188.6046875 653.1875C214.319375 621.76875 249.02875 591.7375 285.676875 560.575C287.5384375000001 558.9937500000001 289.4059375 557.40625 291.2771875 555.815625C325.46875 526.76875 361.028125 496.559375 388.2625 465.0062499999999C416.965625 431.7562499999999 439.425 393.6875 439.425 350.021875C439.425 277.8625000000001 439.71875 225.4562500000001 449.246875 190.665625C453.8375 173.9031250000001 459.91875 164 466.825 158.128125C473.371875 152.5656250000001 483.234375 148.4375 500.1562499999999 148.4375C517.065625 148.4375 526.8937500000001 152.5625 533.4031249999999 158.1125C540.28125 163.971875 546.3375 173.8625000000001 550.903125 190.634375C560.38125 225.4375 560.6187500000001 277.84375 560.6187500000001 350.021875C560.6187500000001 393.6875 583.075 431.7562499999999 611.7718749999999 465.0062499999999C639.003125 496.55625 674.5593749999999 526.76875 708.74375 555.815625C710.615625 557.40625 712.484375 558.990625 714.34375 560.575C750.9875000000001 591.7375 785.690625 621.765625 811.4 653.1875C837.028125 684.5062499999999 851.5625 714.6571875 851.5625 745.7990625C851.5625 775.189375 845.08125 793.7325000000001 834.653125 806.475625C824.0562500000001 819.4259375 806.7562499999999 829.61375 778.6468749999999 836.89375C750.4375 844.2 713.678125 847.9865625 666.8156250000001 849.835625C622.775 851.573125 571.165625 851.5678125 511.021875 851.5615625C507.371875 851.56125 503.690625 851.560625 499.978125 851.560625C496.265625 851.560625 492.584375 851.56125 488.934375 851.5615625C428.803125 851.5678125 377.2 851.573125 333.1656250000001 849.835625C286.3096875 847.9865625 249.5540625 844.2 221.3475 836.8940625C193.2421875 829.6140625 175.9440625 819.42625 165.3471875 806.4759375zM488.525 898.4365625C492.315625 898.43625 496.13125 898.435625 499.978125 898.435625C503.825 898.435625 507.64375 898.43625 511.43125 898.4365625C571.15625 898.44375 623.65625 898.45 668.6625 896.6740625C716.375 894.7915625 757.1999999999999 890.870625 790.4 882.2715625C823.703125 873.64625 851.640625 859.731875 870.928125 836.1615625C890.3875 812.38375 898.4375 781.9875 898.4375 745.7990625C898.4375 699.3087499999999 876.6031250000001 658.8499999999999 847.6781249999999 623.503125C818.8375 588.2562499999999 780.8062500000001 555.5625 744.7125 524.865625C743.2125000000001 523.59375 741.71875 522.321875 740.228125 521.05625C705.034375 491.1375 672.040625 463.0906249999999 647.259375 434.378125C621.4031249999999 404.421875 607.4937500000001 377.0687499999999 607.4937500000001 350.021875L607.4937500000001 347.040625C607.496875 279.046875 607.496875 220.05625 596.13125 178.31875C590.1937499999999 156.509375 580.5124999999999 136.665625 563.8031249999999 122.43125C546.73125 107.884375 525.128125 101.5625 500.1562499999999 101.5625C475.171875 101.5625 453.559375 107.884375 436.4656250000001 122.4125C419.734375 136.6374999999999 410.0125 156.4718750000001 404.0375 178.2843750000001C392.55 220.2312500000001 392.55 279.58125 392.55 347.99375V350.021875C392.55 377.0687499999999 378.6375 404.4187500000001 352.778125 434.378125C327.99375 463.0906249999999 294.9946875 491.1375 259.7946875 521.05625C258.3040625 522.321875 256.8096875 523.590625 255.3115625 524.865625C219.2128125 555.5625 181.1746875 588.2562499999999 152.329375 623.5C123.4 658.8499999999999 101.5625 699.3075 101.5625 745.7990625C101.5625 781.9875 109.613125 812.3834375 129.0696875 836.1609375C148.356875 859.7315625 176.2940625 873.64625 209.59375 882.2715625C242.7921875 890.8703125 283.6109375 894.7915625 331.31875 896.6740625C376.31875 898.45 428.8125 898.44375 488.525 898.4365625z" />
    <glyph glyph-name="folder-open"
      unicode="&#xE825;"
      horiz-adv-x="1000" d="M684.3875 356.1656250000001H287.5121875000001C275.0121875 356.1656250000001 262.5121875 365.540625 262.5121875 381.165625C262.5121875 396.790625 271.8871875000001 406.165625 287.5121875000001 406.165625H687.5124999999999C700.0125 406.165625 712.5125 396.790625 712.5125 381.165625C712.5125 365.540625 700.0125 356.1656250000001 684.3875 356.1656250000001zM487.5 81.1687500000001C237.5 81.1687500000001 62.5 103.0437500000001 62.5 409.2937500000001V662.41875C62.5 781.1675 128.125 871.7928125 231.25 893.6678125C334.375 915.5428125 415.625 909.2928125 484.375 871.7928125C521.875 853.0428125 534.375 824.9178125 546.875 803.0428125C556.25 784.2928125 565.625 765.5428125 593.75 749.9178125C615.625 737.4178125 643.75 737.4178125 678.125 740.5428125C731.25 740.5428125 787.5 743.6678125000001 834.375 693.6678125C909.375 612.41875 909.375 487.41875 909.375 412.41875C909.375 103.0437500000001 725 81.1687500000001 487.5 81.1687500000001zM337.5 859.2928125C309.375 859.2928125 275 856.1678125 240.625 849.9178125C143.75 831.1678125 109.375 740.5428125 109.375 662.41875V409.2937500000001C109.375 156.1687499999999 231.25 128.0437500000001 487.5 128.0437500000001C721.875 128.0437500000001 865.625 146.7937499999999 865.625 409.2937500000001C865.625 484.2937499999999 865.625 590.54375 803.125 662.41875C771.875 696.7928125000001 728.125 696.7928125000001 681.25 696.7928125000001C643.75 696.7928125000001 606.25 696.7928125000001 575 712.4178125000001C531.25 731.1678125000001 518.75 759.2928125 506.25 781.1678125C496.875 799.9178125 487.5 815.5428125 462.5 831.1678125C425 849.9178125 384.375 859.2928125 337.5 859.2928125z" />
    <glyph glyph-name="home"
      unicode="&#xE826;"
      horiz-adv-x="1000" d="M606.24375 303.125H362.49375C349.99375 303.125 337.49375 312.5 337.49375 328.125C337.49375 343.75 346.86875 353.125 362.49375 353.125H606.24375C618.7437500000001 353.125 631.24375 343.75 631.24375 328.125C631.24375 312.5 618.7437500000001 303.125 606.24375 303.125zM484.375 59.375C168.75 59.375 62.5 59.375 62.5 428.125C62.5 634.375 81.25 656.25 181.25 743.75C196.875 756.25 212.5 771.875 234.375 790.625C246.875 800 256.25 809.375 268.75 818.75C331.25 871.875 409.375 937.5 487.5 937.5C565.625 937.5 643.75 868.75 709.375 815.625C718.75 806.25 731.25 796.875 740.625 790.625C762.5 771.875 778.125 756.25 793.75 743.75C893.75 656.25 912.5 631.25 912.5 428.125C906.25 59.375 800 59.375 484.375 59.375zM484.375 890.625C425 890.625 350 828.125 296.875 781.25C284.375 771.875 275 762.5 262.5 753.125C243.75 734.375 225 721.875 212.5 706.25C121.875 628.125 109.375 615.625 109.375 425C109.375 103.125 165.625 103.125 484.375 103.125C803.125 103.125 859.375 103.125 859.375 425C859.375 615.625 846.875 628.125 756.25 706.25C740.625 718.75 721.875 734.375 703.125 753.125C693.75 759.375 684.375 768.75 671.875 778.125C618.75 828.125 543.75 890.625 484.375 890.625z" />
    <glyph glyph-name="info"
      unicode="&#xE827;"
      horiz-adv-x="1000" d="M794.9375 205.0531249999999C848.2125000000001 258.328125 872.390625 346.359375 872.390625 489.58125C872.390625 632.803125 848.2125000000001 720.833125 794.9375 774.106875C741.6625 827.3809375 653.63125 851.56 510.4125 851.56C367.190625 851.56 279.159375 827.3809375 225.885625 774.106875C172.6115625 720.833125 148.4325 632.803125 148.4325 489.58125C148.4325 346.359375 172.6115625 258.328125 225.885625 205.0531249999999C279.159375 151.78125 367.190625 127.6031250000001 510.4125 127.6031250000001C653.63125 127.6031250000001 741.6625 151.78125 794.9375 205.0531249999999zM828.084375 171.9093750000001C760.909375 104.734375 656.23125 80.7281250000001 510.4125 80.7281250000001C364.590625 80.7281250000001 259.91375 104.734375 192.74 171.9093750000001C125.5659375 239.084375 101.5575 343.759375 101.5575 489.58125C101.5575 635.403125 125.5659375 740.0784375000001 192.74 807.2525C259.91375 874.4265625 364.590625 898.435 510.4125 898.435C656.23125 898.435 760.909375 874.4265625 828.084375 807.2525C895.25625 740.0784375000001 919.265625 635.403125 919.265625 489.58125C919.265625 343.759375 895.25625 239.084375 828.084375 171.9093750000001zM510.421875 303.846875C497.478125 303.846875 486.984375 314.3406250000001 486.984375 327.284375V489.578125C486.984375 502.521875 497.478125 513.015625 510.421875 513.015625C523.3656249999999 513.015625 533.859375 502.521875 533.859375 489.578125V327.284375C533.859375 314.3406250000001 523.3656249999999 303.846875 510.421875 303.846875zM534.0281249999999 635.415625C534.0281249999999 622.46875 523.534375 611.978125 510.590625 611.978125H510.2156249999999C497.271875 611.978125 486.778125 622.46875 486.778125 635.415625C486.778125 648.359375 497.271875 658.853125 510.2156249999999 658.853125H510.590625C523.534375 658.853125 534.0281249999999 648.359375 534.0281249999999 635.415625z" />
    <glyph glyph-name="laptop"
      unicode="&#xE828;"
      horiz-adv-x="1000" d="M70.3125 156.25C70.3125 169.19375 80.8059375 179.6875 93.75 179.6875H906.25C919.19375 179.6875 929.6875 169.19375 929.6875 156.25C929.6875 143.30625 919.19375 132.8125 906.25 132.8125H93.75C80.8059375 132.8125 70.3125 143.30625 70.3125 156.25zM192.97625 769.7209375C258.215 818.65 358.965625 835.9375 500 835.9375C641.0343750000001 835.9375 741.7843750000001 818.65 807.025 769.7209375C874.3562499999999 719.2215625 898.4375 639.625 898.4375 531.25C898.4375 460.671875 894.8812499999999 405.3656249999999 883.7 362.709375C872.28125 319.146875 852.4468750000001 287.075 819.2625 265.50625C787.26875 244.709375 745.5625 235.53125 694.509375 231.046875C643.453125 226.5625 579.5124999999999 226.5625 501.08125 226.5625H498.91875C420.4875 226.5625 356.546875 226.5625 305.49125 231.046875C254.4378125000001 235.53125 212.7315625 244.709375 180.7365625 265.50625C147.55375 287.075 127.7190625 319.146875 116.300625 362.709375C105.1203125 405.3656249999999 101.5625 460.671875 101.5625 531.25C101.5625 639.625 125.6440625 719.2215625 192.97625 769.7209375zM221.10125 732.2209375C171.24125 694.825625 148.4375 633.796875 148.4375 531.25C148.4375 461.203125 152.09125 411.0406250000001 161.6440625 374.59375C170.95875 339.05625 185.3790625 318.3937500000001 206.2828125 304.80625C228.374375 290.446875 260.58625 282.046875 309.5928125 277.7406249999999C358.3625 273.4593749999999 420.271875 273.4375 500 273.4375C579.7281250000001 273.4375 641.6374999999999 273.4593749999999 690.40625 277.7406249999999C739.4125 282.046875 771.625 290.446875 793.71875 304.80625C814.621875 318.3937500000001 829.040625 339.05625 838.35625 374.59375C847.909375 411.0406250000001 851.5625 461.203125 851.5625 531.25C851.5625 633.796875 828.759375 694.825625 778.9000000000001 732.2209375C726.94375 771.18625 640.196875 789.0625 500 789.0625C359.803125 789.0625 273.0553125 771.18625 221.10125 732.2209375z" />
    <glyph glyph-name="life-bouy"
      unicode="&#xE829;"
      horiz-adv-x="1000" d="M500 851.5625C305.8375 851.5625 148.4375 694.1625 148.4375 500C148.4375 305.8375 305.8375 148.4375 500 148.4375C694.1625 148.4375 851.5625 305.8375 851.5625 500C851.5625 694.1625 694.1625 851.5625 500 851.5625zM101.5625 500C101.5625 720.0509374999999 279.9490625000001 898.4375 500 898.4375C720.05 898.4375 898.4375 720.0509374999999 898.4375 500C898.4375 279.9500000000001 720.05 101.5625 500 101.5625C279.9490625000001 101.5625 101.5625 279.9500000000001 101.5625 500zM500 632.8125C426.65 632.8125 367.1875 573.35 367.1875 500C367.1875 426.65 426.65 367.1875 500 367.1875C573.35 367.1875 632.8125 426.65 632.8125 500C632.8125 573.35 573.35 632.8125 500 632.8125zM320.3125 500C320.3125 599.2375 400.7625000000001 679.6875 500 679.6875C599.2375 679.6875 679.6875 599.2375 679.6875 500C679.6875 400.7625000000001 599.2375 320.3125 500 320.3125C400.7625000000001 320.3125 320.3125 400.7625000000001 320.3125 500zM253.6503125 781.7418749999999L408.33125 627.0625L375.184375 593.915625L220.5046875 748.59625L253.6503125 781.7418749999999zM783.984375 748.5925L629.30625 593.9125L596.1593750000001 627.059375L750.840625 781.738125L783.984375 748.5925zM629.30625 406.084375L783.9875 251.40625L750.840625 218.259375L596.1593750000001 372.9406250000001L629.30625 406.084375zM408.328125 372.94375L253.6490625 218.265625L220.5034375 251.4093750000001L375.184375 406.0906250000001L408.328125 372.94375z" />
    <glyph glyph-name="location-arrow"
      unicode="&#xE82A;"
      horiz-adv-x="1000" d="M556.84375 795.989375C403.7906250000001 753.8490625 243.6721875 697.0609374999999 173.318125 656.45C153.453125 644.984375 149.2903125 636.728125 148.604375 633.846875C148.2671875 632.428125 147.744375 627.975 156.371875 618.8218750000001C164.9621875 609.7125 179.44625 599.63125 199.3384375 589.159375C218.91625 578.8499999999999 242.3271875 568.884375 267.5440625 559.509375C317.96875 540.7625 374.028125 524.965625 417.7437500000001 513.815625C439.54375 508.253125 458.153125 503.878125 471.29375 500.896875C477.8625 499.4062500000001 483.059375 498.26875 486.6 497.5031250000001C488.371875 497.11875 489.728125 496.83125 490.63125 496.6406249999999L491.646875 496.425L491.89375 496.375L491.95 496.3625000000001C501.10625 494.46875 508.271875 487.3125 510.165625 478.15625L510.178125 478.090625L510.23125 477.84375L510.44375 476.828125C510.634375 475.921875 510.925 474.56875 511.30625 472.796875C512.071875 469.25625 513.2125 464.059375 514.703125 457.490625C517.6843749999999 444.35 522.05625 425.7375 527.61875 403.9406250000001C538.7687500000001 360.2218750000001 554.565625 304.165625 573.3125 253.740625C582.6875 228.521875 592.653125 205.1125000000001 602.9625 185.5343750000001C613.4343749999999 165.64375 623.515625 151.159375 632.628125 142.56875C641.7781249999999 133.9406250000001 646.23125 134.4625000000001 647.65 134.8000000000001C650.53125 135.4875 658.7875 139.6500000000001 670.25625 159.5124999999999C710.8656249999999 229.86875 767.653125 389.984375 809.7937499999999 543.0375C830.75625 619.175 847.803125 692.5153124999999 857.278125 750.8609375C862.0250000000001 780.0862500000001 864.775 804.985625 865.28125 824.3265625C865.534375 833.9959375 865.2125000000001 841.8153125 864.4375 847.8359375C864.325 848.7146875 864.20625 849.5278125 864.0812500000001 850.27875C863.33125 850.4015625 862.51875 850.5209375 861.640625 850.63375C855.61875 851.4078125 847.8 851.730625 838.13125 851.4775C818.790625 850.97125 793.890625 848.2196875 764.665625 843.47375C706.31875 833.9990625 632.98125 816.9525 556.84375 795.989375zM867.615625 897.12625C876.515625 895.9825 885.78125 893.855 893.746875 889.6128125C897.859375 887.4225 901.228125 884.05625 903.415625 879.94375C907.659375 871.978125 909.7875 862.71 910.93125 853.8125C912.109375 844.6334375 912.43125 834.2496874999999 912.140625 823.1C911.55625 800.8021875 908.459375 773.598125 903.546875 743.3475C893.7062500000001 682.7406249999999 876.1999999999999 607.640625 854.9875 530.596875C812.775 377.284375 754.7125 212.0656250000001 710.853125 136.0812500000001C697.29375 112.5906250000001 680.425 94.415625 658.5 89.196875C635.109375 83.6343750000001 615.075 94.6906250000001 600.471875 108.4625C585.825 122.2687500000001 572.884375 142.0437500000001 561.484375 163.696875C549.91875 185.6624999999999 539.1625 211.08125 529.375 237.40625C509.8 290.0593750000001 493.53125 347.921875 482.196875 392.353125C476.515625 414.6281250000001 472.04375 433.65 468.9875 447.1218750000001C468.45 449.490625 467.95625 451.6875 467.509375 453.703125C465.49375 454.153125 463.29375 454.646875 460.925 455.1843749999999C447.453125 458.2406249999999 428.43125 462.7125 406.15625 468.3937500000001C361.725 479.728125 303.864375 495.996875 251.2096875 515.5718750000001C224.886875 525.35625 199.4671875 536.1156249999999 177.5003125 547.6812500000001C155.8478125 559.08125 136.073125 572.021875 122.265625 586.6656250000001C108.4959375 601.271875 97.4375 621.30625 103.0025 644.696875C108.21875 666.61875 126.395 683.4875 149.88375 697.0475C225.8690625 740.9081249999999 391.0875 798.97125 544.4 841.1828125C621.4437499999999 862.395625 696.546875 879.900625 757.15 889.7425000000001C787.4031249999999 894.655 814.6062499999999 897.7528125 836.9031249999999 898.3365625C848.0531249999999 898.6284375 858.4375 898.30625 867.615625 897.12625z" />
    <glyph glyph-name="long-arrow-down"
      unicode="&#xE82B;"
      horiz-adv-x="1000" d="M494.971875 453.125C482.471875 453.125 469.971875 462.5 469.971875 478.125V850C469.971875 862.5 479.346875 875 494.971875 875C510.596875 875 519.971875 865.625 519.971875 850V478.125C519.971875 462.5 510.596875 453.125 494.971875 453.125zM498.103125 134.3781250000001C438.7281250000001 134.3781250000001 326.228125 309.378125 294.9775 384.3781250000001C282.4775 412.503125 273.1025 450.003125 291.8525 468.753125C332.4781250000001 509.378125 663.728125 509.378125 704.353125 468.753125C719.978125 453.128125 716.853125 428.128125 701.228125 387.503125C666.8531250000001 312.503125 557.4781250000001 134.3781250000001 498.103125 134.3781250000001zM326.228125 437.503125C326.228125 390.628125 457.478125 193.753125 498.103125 181.2531250000001C538.728125 193.753125 666.8531250000001 387.503125 666.8531250000001 437.503125C623.103125 456.2531250000001 369.978125 456.2531250000001 326.228125 437.503125z" />
    <glyph glyph-name="long-arrow-left"
      unicode="&#xE82C;"
      horiz-adv-x="1000" d="M840.63125 476.9H468.75625C456.25625 476.9 443.75625 486.278125 443.75625 501.903125C443.75625 517.528125 453.13125 526.9 468.75625 526.9H840.63125C853.13125 526.9 865.6312499999999 517.528125 865.6312499999999 501.903125C865.6312499999999 486.278125 853.13125 476.9 840.63125 476.9zM431.25 283.146875C415.625 283.146875 396.875 289.396875 378.125 298.771875C303.125 330.021875 125 442.5218749999999 125 501.896875C125 561.2718749999999 299.9996875 673.771875 375 705.0225C403.125 717.5225 440.625 726.8971875 459.375 708.1471875C500 667.5218749999999 500 336.271875 459.375 295.646875C450 286.2718749999999 440.625 283.146875 431.25 283.146875zM171.8746875 501.896875C184.3746875 461.271875 378.125 333.1468749999999 428.125 333.1468749999999C450 376.896875 450 630.021875 428.125 673.771875C378.125 670.6468749999999 181.2496875 539.396875 171.8746875 501.896875z" />
    <glyph glyph-name="long-arrow-right"
      unicode="&#xE82D;"
      horiz-adv-x="1000" d="M521.875 477.228125H150C137.5 477.228125 125 486.60625 125 502.23125C125 517.85625 134.375 527.228125 150 527.228125H521.875C534.375 527.228125 546.875 517.85625 546.875 502.23125C546.875 486.60625 534.375 477.228125 521.875 477.228125zM559.36875 283.478125C546.86875 283.478125 537.49375 286.603125 528.11875 295.978125C487.49375 336.603125 487.49375 667.853125 528.11875 708.4771875C543.74375 724.1021875 568.74375 720.9775 609.36875 705.3525C684.36875 674.1031250000001 862.49375 561.603125 862.49375 502.228125C862.49375 442.853125 687.49375 330.353125 612.49375 299.103125C596.86875 289.728125 574.99375 283.478125 559.36875 283.478125zM559.36875 330.353125C606.24375 327.228125 803.11875 461.603125 815.61875 502.228125C803.11875 542.853125 609.36875 670.978125 559.36875 670.978125C540.6187500000001 627.2281250000001 540.6187500000001 374.103125 559.36875 330.353125z" />
    <glyph glyph-name="long-arrow-up"
      unicode="&#xE82E;"
      horiz-adv-x="1000" d="M497.778125 137.5C485.278125 137.5 472.778125 146.875 472.778125 162.5V531.25C472.778125 543.75 482.153125 556.25 497.778125 556.25C513.4031249999999 556.25 522.7781249999999 546.875 522.7781249999999 531.25V159.3781250000001C522.7781249999999 146.878125 513.4031249999999 137.5 497.778125 137.5zM504.021875 509.375C450.896875 509.375 319.646875 512.5 291.5225000000001 540.625C275.8975000000001 556.25 279.0228125 581.25 294.6478125 621.875C325.896875 696.8746874999999 438.396875 875 497.771875 875C557.146875 875 669.646875 700 700.896875 625C713.396875 596.875 722.7718749999999 559.375 704.021875 540.625C679.021875 515.625 582.1468749999999 509.375 504.021875 509.375zM329.021875 571.875C372.771875 550 625.896875 550 669.646875 571.875C669.646875 618.75 538.396875 815.625 497.771875 828.125C460.271875 815.625 332.146875 621.875 329.021875 571.875z" />
    <glyph glyph-name="map-marker"
      unicode="&#xE82F;"
      horiz-adv-x="1000" d="M372.834375 553.734375C372.834375 624.2249999999999 429.95625 681.359375 500.415625 681.359375C570.9125 681.359375 628.040625 624.23125 628.040625 553.734375C628.040625 483.271875 570.90625 426.15 500.415625 426.15C429.9625000000001 426.15 372.834375 483.278125 372.834375 553.734375zM500.415625 634.484375C455.85625 634.484375 419.709375 598.346875 419.709375 553.734375C419.709375 509.165625 455.85 473.025 500.415625 473.025C545.03125 473.025 581.165625 509.171875 581.165625 553.734375C581.165625 598.340625 545.025 634.484375 500.415625 634.484375zM499.978125 851.5625C340.615625 851.5625 210.9375 720.5796875000001 210.9375 558.390625C210.9375 453.1625 256.2871875 349.759375 316.90625 272.4C347.128125 233.8312500000001 380.625 202.425 413.165625 180.84375C446.065625 159.025 476.153125 148.4375 499.978125 148.4375C523.815625 148.4375 553.9125 159.025 586.8187499999999 180.84375C619.365625 202.425 652.865625 233.834375 683.0906249999999 272.403125C743.7125 349.759375 789.0625 453.1625 789.0625 558.390625C789.0625 720.575625 659.35 851.5625 499.978125 851.5625zM164.0625 558.390625C164.0625 745.881875 314.14375 898.4375 499.978125 898.4375C685.8125 898.4375 835.9375 745.885625 835.9375 558.390625C835.9375 440.284375 785.421875 326.990625 719.984375 243.4875C687.178125 201.625 650.0968750000001 166.5593749999999 612.721875 141.7781249999999C575.703125 117.2312500000001 536.5375 101.5625 499.978125 101.5625C463.428125 101.5625 424.26875 117.2312500000001 387.2593750000001 141.7781249999999C349.890625 166.5593749999999 312.8125 201.625 280.01 243.4875C214.5771875 326.990625 164.0625 440.284375 164.0625 558.390625z" />
    <glyph glyph-name="minus-circle"
      unicode="&#xE830;"
      horiz-adv-x="1000" d="M512.95625 820.3125C328.878125 820.3125 179.6875 671.121875 179.6875 487.04375C179.6875 302.9656250000001 328.878125 153.775 512.95625 153.775C696.9968749999999 153.775 846.225 302.9656250000001 846.225 487.04375C846.225 671.121875 696.9968749999999 820.3125 512.95625 820.3125zM132.8125 487.04375C132.8125 697.0115625000001 302.9884375 867.1875 512.95625 867.1875C722.884375 867.1875 893.1 697.0134375 893.1 487.04375C893.1 277.075 722.884375 106.9 512.95625 106.9C302.9884375 106.9 132.8125 277.075 132.8125 487.04375zM367.1875 484.375C367.1875 497.31875 377.6812500000001 507.8125 390.625 507.8125H640.625C653.56875 507.8125 664.0625 497.31875 664.0625 484.375C664.0625 471.43125 653.56875 460.9375 640.625 460.9375H390.625C377.6812500000001 460.9375 367.1875 471.43125 367.1875 484.375z" />
    <glyph glyph-name="minus"
      unicode="&#xE831;"
      horiz-adv-x="1000" d="M125 500C125 517.2593750000001 138.99125 531.25 156.25 531.25H843.75C861.009375 531.25 875 517.2593750000001 875 500C875 482.740625 861.009375 468.75 843.75 468.75H156.25C138.99125 468.75 125 482.740625 125 500z" />
    <glyph glyph-name="mobile"
      unicode="&#xE832;"
      horiz-adv-x="1000" d="M500 250C482.740625 250 468.75 236.009375 468.75 218.75C468.75 201.490625 482.740625 187.5 500 187.5C517.259375 187.5 531.25 201.490625 531.25 218.75C531.25 236.009375 517.259375 250 500 250zM293.9165625 168.915625C306.4971875 156.3375 329.421875 148.4375 375 148.4375L625 148.4375C670.578125 148.4375 693.503125 156.3375 706.084375 168.915625C718.6625 181.4968750000001 726.5625 204.421875 726.5625 250L726.5625 687.5C726.5625 733.0765624999999 718.665625 756.0028125 706.084375 768.5834375C693.503125 781.1640625 670.578125 789.0625 625 789.0625L375 789.0625C329.425 789.0625 306.4971875 781.1640625 293.9165625 768.5834375C281.3359375 756.0028125 273.4375 733.0765624999999 273.4375 687.5L273.4375 250C273.4375 204.421875 281.3359375 181.4968750000001 293.9165625 168.915625zM260.7709375 135.771875C234.2890625 162.253125 226.5625 201.828125 226.5625 250L226.5625 687.5C226.5625 735.6734375000001 234.2890625 775.2471875 260.7709375 801.7290625C287.2528125 828.2109375 326.828125 835.9375 375 835.9375L625 835.9375C673.171875 835.9375 712.746875 828.2109375 739.228125 801.7290625C765.7125 775.2471875 773.4375 735.6734375000001 773.4375 687.5L773.4375 250C773.4375 201.828125 765.7125 162.253125 739.228125 135.771875C712.746875 109.2875 673.171875 101.5625 625 101.5625L375 101.5625C326.828125 101.5625 287.2528125 109.2875 260.7709375 135.771875z" />
    <glyph glyph-name="order"
      unicode="&#xE833;"
      horiz-adv-x="1000" d="M743.75 484.375H243.75C231.25 484.375 218.75 493.75 218.75 509.375C218.75 525 228.125 531.25 243.75 531.25H743.75C756.25 531.25 768.75 521.875 768.75 506.25C768.75 490.625 756.25 484.375 743.75 484.375zM868.75 734.375H118.75C106.25 734.375 93.75 743.75 93.75 759.375C93.75 775 103.125 781.25 118.75 781.25H868.75C881.25 781.25 893.75 771.875 893.75 756.25C893.75 740.625 881.25 734.375 868.75 734.375zM587.5 234.378125H400C387.5 234.378125 375 243.7531250000001 375 259.3781250000001C375 275.0031250000001 384.375 284.3781250000001 400 284.3781250000001H587.5C600 284.3781250000001 612.5 275.0031250000001 612.5 259.3781250000001C612.5 243.7531250000001 600 234.378125 587.5 234.378125z" />
    <glyph glyph-name="paper-plane"
      unicode="&#xE834;"
      horiz-adv-x="1000" d="M556.84375 795.989375C403.7906250000001 753.8490625 243.6721875 697.0609374999999 173.318125 656.45C153.453125 644.984375 149.2903125 636.728125 148.604375 633.846875C148.2671875 632.428125 147.744375 627.975 156.371875 618.8218750000001C164.9621875 609.7125 179.44625 599.63125 199.3384375 589.159375C218.91625 578.8499999999999 242.3271875 568.884375 267.5440625 559.509375C317.96875 540.7625 374.028125 524.965625 417.7437500000001 513.815625C439.54375 508.253125 458.153125 503.878125 471.29375 500.896875C477.8625 499.4062500000001 483.059375 498.26875 486.6 497.5031250000001C488.371875 497.11875 489.728125 496.83125 490.63125 496.6406249999999L491.646875 496.425L491.89375 496.375L491.95 496.3625000000001C501.10625 494.46875 508.271875 487.3125 510.165625 478.15625L510.178125 478.090625L510.23125 477.84375L510.44375 476.828125C510.634375 475.921875 510.925 474.56875 511.30625 472.796875C512.071875 469.25625 513.2125 464.059375 514.703125 457.490625C517.6843749999999 444.35 522.05625 425.7375 527.61875 403.9406250000001C538.7687500000001 360.2218750000001 554.565625 304.165625 573.3125 253.740625C582.6875 228.521875 592.653125 205.1125000000001 602.9625 185.5343750000001C613.4343749999999 165.64375 623.515625 151.159375 632.628125 142.56875C641.7781249999999 133.9406250000001 646.23125 134.4625000000001 647.65 134.8000000000001C650.53125 135.4875 658.7875 139.6500000000001 670.25625 159.5124999999999C710.8656249999999 229.86875 767.653125 389.984375 809.7937499999999 543.0375C830.75625 619.175 847.803125 692.5153124999999 857.278125 750.8609375C862.0250000000001 780.0862500000001 864.775 804.985625 865.28125 824.3265625C865.534375 833.9959375 865.2125000000001 841.8153125 864.4375 847.8359375C864.325 848.7146875 864.20625 849.5278125 864.0812500000001 850.27875C863.33125 850.4015625 862.51875 850.5209375 861.640625 850.63375C855.61875 851.4078125 847.8 851.730625 838.13125 851.4775C818.790625 850.97125 793.890625 848.2196875 764.665625 843.47375C706.31875 833.9990625 632.98125 816.9525 556.84375 795.989375zM867.615625 897.12625C876.515625 895.9825 885.78125 893.855 893.746875 889.6128125C897.859375 887.4225 901.228125 884.05625 903.415625 879.94375C907.659375 871.978125 909.7875 862.71 910.93125 853.8125C912.109375 844.6334375 912.43125 834.2496874999999 912.140625 823.1C911.55625 800.8021875 908.459375 773.598125 903.546875 743.3475C893.7062500000001 682.7406249999999 876.1999999999999 607.640625 854.9875 530.596875C812.775 377.284375 754.7125 212.0656250000001 710.853125 136.0812500000001C697.29375 112.5906250000001 680.425 94.415625 658.5 89.196875C635.109375 83.6343750000001 615.075 94.6906250000001 600.471875 108.4625C585.825 122.2687500000001 572.884375 142.0437500000001 561.484375 163.696875C549.91875 185.6624999999999 539.1625 211.08125 529.375 237.40625C509.8 290.0593750000001 493.53125 347.921875 482.196875 392.353125C476.515625 414.6281250000001 472.04375 433.65 468.9875 447.1218750000001C468.45 449.490625 467.95625 451.6875 467.509375 453.703125C465.49375 454.153125 463.29375 454.646875 460.925 455.1843749999999C447.453125 458.2406249999999 428.43125 462.7125 406.15625 468.3937500000001C361.725 479.728125 303.864375 495.996875 251.2096875 515.5718750000001C224.886875 525.35625 199.4671875 536.1156249999999 177.5003125 547.6812500000001C155.8478125 559.08125 136.073125 572.021875 122.265625 586.6656250000001C108.4959375 601.271875 97.4375 621.30625 103.0025 644.696875C108.21875 666.61875 126.395 683.4875 149.88375 697.0475C225.8690625 740.9081249999999 391.0875 798.97125 544.4 841.1828125C621.4437499999999 862.395625 696.546875 879.900625 757.15 889.7425000000001C787.4031249999999 894.655 814.6062499999999 897.7528125 836.9031249999999 898.3365625C848.0531249999999 898.6284375 858.4375 898.30625 867.615625 897.12625zM899.303125 885.4996874999999C908.45625 876.346875 908.45625 861.5071875 899.303125 852.3540625L503.7875000000001 456.8375C494.634375 447.6843750000001 479.79375 447.6843750000001 470.640625 456.8375C461.4875 465.990625 461.4875 480.8312500000001 470.640625 489.984375L866.15625 885.4996874999999C875.3093749999999 894.6528125 890.15 894.6528125 899.303125 885.4996874999999z" />
    <glyph glyph-name="pencil"
      unicode="&#xE835;"
      horiz-adv-x="1000" d="M826.071875 162.478125H560.446875C547.9468750000001 162.478125 535.446875 171.8531250000001 535.446875 187.4781250000001C535.446875 203.1031250000001 544.821875 212.478125 560.446875 212.478125H826.071875C838.571875 212.478125 851.071875 203.1031250000001 851.071875 187.4781250000001C851.071875 171.8531250000001 838.571875 162.478125 826.071875 162.478125zM260.4425 149.971875C229.1925 149.971875 207.3175 156.221875 204.1925 156.221875C197.9425 156.221875 191.6925 162.4718750000001 188.5675 168.7218750000001C185.4425 174.971875 113.5675 303.0968750000001 194.8175 409.346875L476.06875 784.348125C526.06875 849.973125 619.81875 862.473125 685.44375 815.598125C716.69375 790.598125 738.56875 756.223125 744.81875 715.598125C751.0687499999999 674.971875 741.69375 637.471875 716.69375 603.096875L435.44375 228.096875C385.44375 162.4718750000001 313.56875 149.971875 260.4425 149.971875zM226.0675 199.9718750000001C257.3175 196.846875 347.94375 190.596875 397.94375 256.2218750000001L679.19375 631.221875C694.81875 653.096875 704.1937499999999 681.221875 697.94375 709.348125C694.81875 737.473125 679.19375 759.348125 657.3187499999999 778.098125C610.4437499999999 812.473125 547.9437499999999 803.098125 513.56875 756.223125L232.3175 381.2218750000001C182.3175 312.471875 213.5675 228.096875 226.0675 199.9718750000001zM644.821875 521.8499999999999C638.571875 521.8499999999999 635.446875 521.8499999999999 632.321875 528.1L429.196875 681.225C419.8218750000001 687.475 416.6968750000001 703.099375 426.071875 712.474375C432.3218750000001 721.849375 447.9468750000001 724.974375 457.321875 715.599375L657.3218750000001 562.475C666.696875 556.225 669.821875 540.6 660.446875 531.225C657.3218750000001 524.975 651.071875 521.8499999999999 644.821875 521.8499999999999z" />
    <glyph glyph-name="phone"
      unicode="&#xE836;"
      horiz-adv-x="1000" d="M135.50375 802.1959375C135.396875 802.03125 135.36375 801.98 135.40125 802.04625C135.0003125 801.3403125 134.563125 800.655625 134.09125 799.995C123.330625 784.930625 106.5034375 748.9512500000001 126.4759375 681.403125C146.8203125 612.5999999999999 205.4253125 511.128125 347.840625 368.6968750000001C490.278125 226.265625 591.7624999999999 167.6531249999999 660.58125 147.3093749999999C728.140625 127.3375 764.1281250000001 144.1750000000001 779.1875 154.9468750000001C779.865625 155.43125 780.56875 155.88125 781.29375 156.290625L781.3 156.296875C781.584375 156.478125 790.503125 162.1906250000001 802.703125 172.5625C814.884375 182.9187500000001 829.284375 197.0437499999999 840.88125 213.553125C852.54375 230.146875 860.478125 247.871875 861.7843750000001 265.73125C863.0375 282.8375 858.4000000000001 302.265625 840.8875 323.659375C788.996875 386.6625 755.203125 409.61875 732.1 416.475C711.1625 422.69375 695.70625 416.79375 673.353125 405.975C671.878125 405.2625 670.3656249999999 404.521875 668.81875 403.7625000000001C647.765625 393.446875 619.85625 379.76875 583.8125 384.2781250000001C545.45 389.078125 502.490625 413.4625 447.56875 468.371875L447.565625 468.375C392.653125 523.296875 368.26875 566.25625 363.46875 604.6156249999999C358.959375 640.65625 372.63125 668.565625 382.94375 689.6171875C383.703125 691.1671875 384.44375 692.6803125 385.159375 694.1565625000001C395.975 716.5081250000001 401.871875 731.9703125 395.65 752.9143750000001C388.784375 776.0209375 365.8218750000001 809.821875 302.8125 861.7184374999999C281.4234375 879.2353125 261.999375 883.8725 244.895625 882.62C227.0415625 881.3125 209.3215625 873.3778125 192.724375 861.7153125C176.21375 850.1134375 162.0859375 835.710625 151.7225 823.5225C146.5871875 817.483125 142.495 812.128125 139.6165625 808.149375C137.21 804.8228125 135.8859375 802.784375 135.50375 802.1959375zM241.471875 929.3696875C271.3953125 931.56125 302.5203125 922.5571875 332.540625 897.9596875L332.5875 897.921875C397.190625 844.7175 429.55 803.4053125 440.584375 766.2628125C452.259375 726.9546875 438.625 697.031875 427.353125 673.7375C426.95 672.909375 426.553125 672.0875 426.159375 671.2750000000001C415.10625 648.46875 407.25 632.25625 409.9812500000001 610.4375C412.85 587.50625 428.453125 553.7874999999999 480.7125 501.51875C532.9812499999999 449.2625000000001 566.6999999999999 433.659375 589.63125 430.790625C611.453125 428.0625 627.66875 435.921875 650.475 446.978125C651.2843750000001 447.371875 652.103125 447.7687500000001 652.928125 448.1687500000001C676.21875 459.4406250000001 706.1374999999999 473.08125 745.4437499999999 461.4125C782.58125 450.3875 823.8875 418.034375 877.084375 353.4468750000001L877.125 353.396875C901.721875 323.365625 910.725 292.234375 908.534375 262.309375C906.396875 233.125 893.8000000000001 207.3343749999999 879.2375 186.603125C852.2375 148.175 814.7937499999999 121.9625 805.75 116.31875C778.2249999999999 96.9343750000001 727.346875 78.6906250000001 647.290625 102.3562500000001C567.8 125.8562500000001 459.71875 190.5343750000001 314.69375 335.5500000000001L314.69375 335.553125C169.6928125 480.56875 105.025 588.6375 81.525 668.1125C57.8546875 748.1646875 76.0965625 799.0253125 95.453125 826.543125C101.0403125 835.48875 127.2753125 873.015625 165.7740625 900.068125C186.5025 914.63375 212.2925 927.2328125 241.471875 929.3696875z" />
    <glyph glyph-name="photo"
      unicode="&#xE837;"
      horiz-adv-x="1000" d="M503.1250000000001 87.5C200 87.5 93.75 196.875 93.75 496.8749999999999C93.75 796.875 200 906.25 503.1250000000001 906.25C806.25 906.25 912.5 800 912.5 496.8749999999999C912.5 193.75 803.125 87.5 503.1250000000001 87.5zM503.1250000000001 859.375C225 859.375 140.625 775 140.625 496.8749999999999C140.625 218.75 225 134.375 503.1250000000001 134.375C781.25 134.375 865.625 218.75 865.625 496.8749999999999C865.625 775 781.25 859.375 503.1250000000001 859.375zM371.8687500000001 534.375C318.74375 534.375 274.99375 578.125 274.99375 631.25C274.99375 684.375 318.74375 728.1265625000001 371.8687500000001 728.1265625000001C424.99375 728.1265625000001 468.74375 684.375 468.74375 631.25C468.74375 578.125 424.99375 534.375 371.8687500000001 534.375zM371.8687500000001 681.25C343.7437500000001 681.25 321.86875 659.375 321.86875 631.25C321.86875 603.125 343.7437500000001 581.25 371.8687500000001 581.25C399.99375 581.25 421.8687500000001 603.125 421.8687500000001 631.25C421.8687500000001 659.375 396.86875 681.25 371.8687500000001 681.25zM187.4975 187.5C190.6225 184.375 184.3725 187.5 187.4975 187.5C174.9975 193.75 159.3725 209.375 165.6225 221.875C171.8725 234.375 221.8725 350 293.7475 381.25C337.496875 403.125 371.8718750000001 390.625 409.371875 375C437.496875 365.625 465.621875 356.25 506.246875 356.25C540.621875 356.25 559.3718749999999 384.375 584.3718749999999 428.125C609.371875 471.875 640.621875 521.875 699.9968749999999 521.875C790.621875 521.875 846.871875 459.375 884.371875 418.75C890.621875 412.5 896.8718749999999 406.25 899.996875 400C909.371875 390.625 899.9937500000001 384.375 890.61875 375C881.24375 365.625 874.996875 356.25 865.6218749999999 365.625C859.371875 371.875 853.121875 378.125 846.871875 384.375C812.496875 421.875 768.746875 471.875 696.871875 471.875C665.621875 471.875 646.8718749999999 443.75 621.8718749999999 400C596.871875 356.25 565.621875 303.125 503.121875 303.125C456.246875 303.125 418.7468750000001 315.625 390.621875 325C356.2468750000001 343.75 337.496875 350 312.4975 337.5C265.6225 315.625 221.8725 231.25 209.3725 200C206.2475 193.75 196.8725 187.5 187.4975 187.5z" />
    <glyph glyph-name="plus-circle"
      unicode="&#xE838;"
      horiz-adv-x="1000" d="M512.95625 820.3125C328.878125 820.3125 179.6875 671.121875 179.6875 487.04375C179.6875 302.9656250000001 328.878125 153.775 512.95625 153.775C696.9968749999999 153.775 846.225 302.9656250000001 846.225 487.04375C846.225 671.121875 696.9968749999999 820.3125 512.95625 820.3125zM132.8125 487.04375C132.8125 697.0115625000001 302.9884375 867.1875 512.95625 867.1875C722.884375 867.1875 893.1 697.0134375 893.1 487.04375C893.1 277.075 722.884375 106.9 512.95625 106.9C302.9884375 106.9 132.8125 277.075 132.8125 487.04375zM515.625 632.8125C528.56875 632.8125 539.0625 622.3187499999999 539.0625 609.375V507.8125H640.625C653.56875 507.8125 664.0625 497.31875 664.0625 484.375C664.0625 471.43125 653.56875 460.9375 640.625 460.9375H539.0625V359.375C539.0625 346.43125 528.56875 335.9375 515.625 335.9375C502.68125 335.9375 492.1875 346.43125 492.1875 359.375V460.9375H390.625C377.6812500000001 460.9375 367.1875 471.43125 367.1875 484.375C367.1875 497.31875 377.6812500000001 507.8125 390.625 507.8125H492.1875V609.375C492.1875 622.3187499999999 502.68125 632.8125 515.625 632.8125z" />
    <glyph glyph-name="plus"
      unicode="&#xE839;"
      horiz-adv-x="1000" d="M125 500C125 517.2593750000001 138.99125 531.25 156.25 531.25H843.75C861.009375 531.25 875 517.2593750000001 875 500C875 482.740625 861.009375 468.75 843.75 468.75H156.25C138.99125 468.75 125 482.740625 125 500zM500 875C517.259375 875 531.25 861.00875 531.25 843.75V156.25C531.25 138.990625 517.259375 125 500 125C482.740625 125 468.75 138.990625 468.75 156.25V843.75C468.75 861.00875 482.740625 875 500 875z" />
    </font>
</defs>
</svg>
