<svg width="267" height="297" viewBox="0 0 267 297" fill="none" xmlns="http://www.w3.org/2000/svg">
<path d="M3 150.82V82.2199H17.79V138.47H49.11V150.82H3Z" fill="#2B3B4C"/>
<path d="M73.9502 150.03C70.0807 148.758 66.5469 146.632 63.6102 143.81C60.4894 140.743 58.0794 137.029 56.5502 132.93C54.7052 127.83 53.8269 122.431 53.9602 117.01V115.01C53.8364 109.762 54.7155 104.538 56.5502 99.6199C58.0814 95.6089 60.4941 91.9932 63.6102 89.0399C66.5802 86.2941 70.1069 84.2204 73.9502 82.9599C81.9728 80.3467 90.6176 80.3467 98.6402 82.9599C102.484 84.2204 106.01 86.2941 108.98 89.0399C112.099 91.9906 114.513 95.607 116.04 99.6199C117.879 104.538 118.761 109.761 118.64 115.01V117.01C118.771 122.432 117.889 127.831 116.04 132.93C114.515 137.031 112.104 140.746 108.98 143.81C106.044 146.632 102.51 148.758 98.6402 150.03C90.6176 152.643 81.9728 152.643 73.9502 150.03V150.03ZM92.6702 138.31C94.7421 137.526 96.5921 136.249 98.0602 134.59C99.7801 132.571 101.064 130.219 101.83 127.68C102.86 124.216 103.339 120.612 103.25 117V115C103.339 111.545 102.859 108.099 101.83 104.8C101.052 102.356 99.7674 100.104 98.0602 98.1899C96.5775 96.5806 94.7285 95.3525 92.6702 94.6099C88.5456 93.1702 84.0549 93.1702 79.9302 94.6099C77.8694 95.3475 76.0193 96.5763 74.5402 98.1899C72.8263 100.101 71.5378 102.354 70.7602 104.8C69.7314 108.099 69.2517 111.545 69.3402 115V117C69.251 120.612 69.7302 124.216 70.7602 127.68C71.5256 130.221 72.8131 132.575 74.5402 134.59C76.0046 136.253 77.8556 137.531 79.9302 138.31C84.0433 139.816 88.5572 139.816 92.6702 138.31V138.31Z" fill="#2B3B4C"/>
<path d="M147.74 150.03C143.943 148.761 140.49 146.632 137.65 143.81C134.611 140.715 132.302 136.981 130.89 132.88C129.147 127.775 128.317 122.403 128.44 117.01V115.01C128.315 109.803 129.159 104.618 130.93 99.7199C132.414 95.7545 134.741 92.1584 137.75 89.1799C140.596 86.4217 144.008 84.3163 147.75 83.0099C151.674 81.6564 155.799 80.9801 159.95 81.0099C163.46 80.9824 166.957 81.4435 170.34 82.3799C173.447 83.2491 176.368 84.6793 178.96 86.5999C181.529 88.5107 183.68 90.9269 185.28 93.6999C187.04 96.8033 188.191 100.215 188.67 103.75H173.32C172.83 102 172.053 100.345 171.02 98.8499C170.155 97.6195 169.074 96.5557 167.83 95.7099C166.68 94.9379 165.404 94.3728 164.06 94.0399C160.594 93.2151 156.96 93.4379 153.62 94.6799C151.635 95.4507 149.87 96.6972 148.48 98.3099C146.868 100.236 145.697 102.492 145.05 104.92C144.16 108.211 143.746 111.612 143.82 115.02V117.02C143.733 120.538 144.168 124.049 145.11 127.44C145.826 129.961 147.044 132.311 148.69 134.35C150.095 136.048 151.894 137.377 153.93 138.22C155.939 139.042 158.09 139.46 160.26 139.45C162.29 139.463 164.312 139.18 166.26 138.61C168.085 138.094 169.786 137.213 171.26 136.02C172.743 134.783 173.946 133.246 174.79 131.51C175.76 129.451 176.294 127.215 176.36 124.94H162.25V114.94H190.18V118.94C190.284 123.943 189.537 128.927 187.97 133.68C186.692 137.509 184.605 141.019 181.85 143.97C179.229 146.682 176.005 148.737 172.44 149.97C168.536 151.333 164.425 152.009 160.29 151.97C156.029 152.017 151.789 151.361 147.74 150.03V150.03Z" fill="#2B3B4C"/>
<path d="M219.48 150.03C215.6 148.762 212.056 146.636 209.11 143.81C206.008 140.74 203.618 137.026 202.11 132.93C200.262 127.831 199.38 122.432 199.51 117.01V115.01C199.389 109.761 200.272 104.538 202.11 99.6199C203.626 95.6271 206.018 92.0252 209.11 89.0799C212.08 86.3341 215.607 84.2605 219.45 82.9999C227.473 80.3868 236.118 80.3868 244.14 82.9999C247.983 84.2605 251.51 86.3341 254.48 89.0799C257.596 92.0332 260.009 95.649 261.54 99.6599C263.375 104.578 264.254 109.802 264.13 115.05V117.05C264.264 122.471 263.385 127.87 261.54 132.97C260.011 137.069 257.601 140.783 254.48 143.85C251.544 146.672 248.01 148.798 244.14 150.07C236.118 152.683 227.473 152.683 219.45 150.07L219.48 150.03ZM238.19 138.31C240.265 137.531 242.116 136.253 243.58 134.59C245.307 132.575 246.595 130.221 247.36 127.68C248.385 124.215 248.864 120.612 248.78 117V115C248.864 111.545 248.384 108.1 247.36 104.8C246.583 102.354 245.294 100.101 243.58 98.1899C242.101 96.5764 240.251 95.3476 238.19 94.6099C234.066 93.1702 229.575 93.1702 225.45 94.6099C223.392 95.3526 221.543 96.5806 220.06 98.1899C218.353 100.104 217.068 102.356 216.29 104.8C215.261 108.099 214.782 111.545 214.87 115V117C214.781 120.612 215.26 124.216 216.29 127.68C217.057 130.219 218.34 132.571 220.06 134.59C221.528 136.249 223.378 137.526 225.45 138.31C229.563 139.817 234.077 139.817 238.19 138.31V138.31Z" fill="#2B3B4C"/>
<path d="M41.5302 208.38C40.5514 207.974 39.6814 207.343 38.9902 206.54C38.2405 205.644 37.6854 204.602 37.3602 203.48C36.9507 202.105 36.7551 200.675 36.7802 199.24V198.51C36.7607 197.154 36.9564 195.804 37.3602 194.51C37.691 193.425 38.2425 192.421 38.9802 191.56C39.672 190.771 40.5383 190.155 41.5102 189.76C42.5596 189.342 43.6809 189.135 44.8102 189.15C46.0998 189.126 47.3728 189.443 48.5002 190.07C49.5688 190.661 50.4387 191.555 51.0002 192.64V183.42H55.0002V208.62H51.3302V205.31C50.8068 206.413 49.959 207.331 48.9002 207.94C47.6685 208.641 46.2667 208.987 44.8502 208.94C43.7173 208.977 42.5883 208.787 41.5302 208.38V208.38ZM47.8502 205.21C48.4804 204.969 49.0503 204.594 49.5202 204.11C49.9978 203.616 50.3658 203.026 50.6002 202.38C50.8765 201.662 51.0123 200.899 51.0002 200.13V197.62C51.0088 196.907 50.8727 196.199 50.6002 195.54C50.3579 194.926 49.9871 194.371 49.5128 193.913C49.0385 193.454 48.4717 193.102 47.8502 192.88C47.166 192.624 46.4407 192.495 45.7102 192.5C45.0391 192.492 44.3741 192.629 43.7602 192.9C43.1612 193.162 42.6283 193.555 42.2002 194.05C41.73 194.598 41.3731 195.233 41.1502 195.92C40.8887 196.758 40.7638 197.632 40.7802 198.51V199.24C40.7644 200.17 40.8892 201.097 41.1502 201.99C41.3665 202.719 41.7232 203.398 42.2002 203.99C42.6207 204.505 43.1546 204.916 43.7602 205.19C44.3711 205.472 45.0372 205.616 45.7102 205.61C46.4429 205.618 47.1701 205.482 47.8502 205.21V205.21Z" fill="#2B3B4C"/>
<path d="M64.7 208.41C63.5791 208.044 62.5541 207.433 61.7 206.62C60.8253 205.748 60.1439 204.702 59.7 203.55C59.1642 202.178 58.9059 200.713 58.94 199.24V198.51C58.9093 197.103 59.1538 195.703 59.66 194.39C60.1113 193.282 60.7931 192.284 61.66 191.46C62.4822 190.673 63.4646 190.073 64.54 189.7C65.6677 189.305 66.8553 189.109 68.05 189.12C70.9833 189.12 73.2233 189.893 74.77 191.44C76.31 192.99 77.09 195.23 77.09 198.16V200.16H62.92C62.9148 201.019 63.085 201.869 63.42 202.66C63.7036 203.305 64.1272 203.879 64.66 204.34C65.1686 204.767 65.7565 205.09 66.39 205.29C67.0365 205.497 67.7113 205.601 68.39 205.6C69.4495 205.658 70.5054 205.433 71.45 204.95C72.1413 204.555 72.6748 203.933 72.96 203.19H76.71C76.5464 204.085 76.2064 204.938 75.71 205.7C75.2339 206.418 74.6225 207.036 73.91 207.52C73.1554 208.031 72.3155 208.404 71.43 208.62C70.4488 208.864 69.4411 208.984 68.43 208.98C67.1634 209.002 65.9022 208.809 64.7 208.41V208.41ZM73.25 197.22C73.2466 196.456 73.1008 195.7 72.82 194.99C72.5805 194.43 72.2101 193.936 71.74 193.55C71.2589 193.178 70.708 192.906 70.12 192.75C69.4829 192.586 68.8279 192.502 68.17 192.5C67.5138 192.498 66.8606 192.589 66.23 192.77C65.6259 192.941 65.0617 193.23 64.57 193.62C64.0785 194.016 63.6792 194.514 63.4 195.08C63.0816 195.747 62.9274 196.481 62.95 197.22H73.25Z" fill="#2B3B4C"/>
<path d="M84.6602 208.52C83.7668 208.256 82.9271 207.836 82.1802 207.28C81.5302 206.797 80.9999 206.171 80.6302 205.45C80.2712 204.743 80.0281 203.984 79.9102 203.2H83.9102C84.0919 203.917 84.5158 204.549 85.1102 204.99C86.0383 205.579 87.1349 205.846 88.2301 205.75C89.3961 205.85 90.565 205.592 91.5802 205.01C91.8789 204.817 92.126 204.554 92.3003 204.244C92.4745 203.933 92.5706 203.585 92.5802 203.23C92.581 202.916 92.5055 202.608 92.3602 202.33C92.1712 202.021 91.906 201.766 91.5902 201.59C91.1134 201.326 90.6064 201.121 90.0802 200.98C89.2805 200.769 88.4691 200.605 87.6501 200.49C86.6677 200.365 85.6976 200.158 84.7502 199.87C83.9462 199.626 83.1866 199.254 82.5002 198.77C81.8906 198.33 81.3909 197.755 81.0401 197.09C80.6736 196.348 80.495 195.527 80.5202 194.7C80.5122 193.95 80.6836 193.21 81.0202 192.54C81.3769 191.842 81.8862 191.234 82.5101 190.76C83.2409 190.208 84.0685 189.797 84.9501 189.55C86.0264 189.245 87.1417 189.1 88.2601 189.12C89.3529 189.097 90.4417 189.259 91.4801 189.6C92.3016 189.887 93.064 190.32 93.7301 190.88C94.3182 191.391 94.7948 192.017 95.1301 192.72C95.4689 193.411 95.7015 194.149 95.8201 194.91H91.8201C91.672 194.182 91.2762 193.528 90.7001 193.06C89.9795 192.546 89.1029 192.299 88.2201 192.36C87.1728 192.254 86.1196 192.493 85.2202 193.04C84.9651 193.235 84.7585 193.486 84.6163 193.774C84.4741 194.062 84.4001 194.379 84.4001 194.7C84.389 195.047 84.4772 195.391 84.6543 195.69C84.8314 195.99 85.0901 196.232 85.4001 196.39C86.5309 196.899 87.743 197.204 88.9801 197.29C90.0189 197.416 91.0456 197.627 92.0502 197.92C92.8886 198.165 93.6821 198.543 94.4002 199.04C95.0404 199.477 95.5598 200.068 95.9101 200.76C96.28 201.53 96.4616 202.376 96.4401 203.23C96.4416 204.011 96.2601 204.782 95.9101 205.48C95.5511 206.207 95.0231 206.838 94.3702 207.32C93.5887 207.875 92.7153 208.288 91.7901 208.54C90.6074 208.86 89.3853 209.012 88.1601 208.99C86.9765 209.01 85.7966 208.851 84.6602 208.52Z" fill="#2B3B4C"/>
<path d="M104.77 208.4C103.694 208.018 102.719 207.396 101.92 206.58C101.084 205.702 100.441 204.66 100.03 203.52C99.554 202.144 99.3238 200.695 99.3501 199.24V198.51C99.3198 197.12 99.5716 195.739 100.09 194.45C100.541 193.339 101.223 192.337 102.09 191.51C102.911 190.727 103.885 190.121 104.95 189.73C106.05 189.32 107.216 189.113 108.39 189.12C109.507 189.105 110.618 189.274 111.68 189.62C112.568 189.931 113.392 190.402 114.11 191.01C114.784 191.592 115.343 192.294 115.76 193.08C116.181 193.878 116.468 194.739 116.61 195.63H112.54C112.261 194.796 111.78 194.043 111.14 193.44C110.346 192.807 109.342 192.5 108.33 192.58C107.69 192.58 107.056 192.699 106.46 192.93C105.861 193.171 105.319 193.536 104.87 194C104.38 194.523 104.011 195.148 103.79 195.83C103.514 196.696 103.382 197.601 103.4 198.51V199.24C103.382 200.208 103.513 201.172 103.79 202.1C104.008 202.83 104.369 203.509 104.85 204.1C105.277 204.59 105.816 204.971 106.42 205.21C107.027 205.454 107.676 205.58 108.33 205.58C109.289 205.606 110.23 205.318 111.01 204.76C111.757 204.201 112.295 203.41 112.54 202.51H116.61C116.447 203.47 116.108 204.392 115.61 205.23C115.159 206.024 114.554 206.721 113.83 207.28C113.088 207.859 112.248 208.299 111.35 208.58C110.36 208.888 109.327 209.039 108.29 209.03C107.089 209.022 105.899 208.809 104.77 208.4V208.4Z" fill="#2B3B4C"/>
<path d="M120.41 208.59V189.51H124.11V192.79C124.301 192.29 124.56 191.819 124.88 191.39C125.207 190.951 125.598 190.563 126.04 190.24C126.498 189.891 127.008 189.614 127.55 189.42C128.135 189.216 128.751 189.115 129.37 189.12C129.741 189.113 130.113 189.136 130.48 189.19C130.737 189.232 130.991 189.293 131.24 189.37V192.93C130.958 192.808 130.663 192.717 130.36 192.66C129.909 192.602 129.455 192.575 129 192.58C128.357 192.572 127.718 192.691 127.12 192.93C126.571 193.156 126.077 193.497 125.67 193.93C125.267 194.384 124.951 194.91 124.74 195.48C124.508 196.1 124.393 196.758 124.4 197.42V208.58L120.41 208.59Z" fill="#2B3B4C"/>
<path d="M134.95 186.56C134.513 186.092 134.271 185.475 134.271 184.835C134.271 184.195 134.513 183.578 134.95 183.11C135.194 182.876 135.482 182.693 135.799 182.575C136.115 182.456 136.452 182.403 136.79 182.42C137.126 182.402 137.462 182.455 137.777 182.573C138.092 182.692 138.379 182.875 138.62 183.11C139.063 183.575 139.31 184.192 139.31 184.835C139.31 185.477 139.063 186.095 138.62 186.56C138.379 186.795 138.092 186.977 137.777 187.096C137.462 187.215 137.126 187.267 136.79 187.25C136.452 187.266 136.115 187.214 135.799 187.095C135.482 186.976 135.194 186.794 134.95 186.56ZM134.81 208.56V189.51H138.81V208.59L134.81 208.56Z" fill="#2B3B4C"/>
<path d="M144.17 215.79V189.51H147.84V192.79C148.437 191.691 149.318 190.773 150.39 190.13C151.581 189.436 152.942 189.089 154.32 189.13C155.413 189.073 156.505 189.255 157.52 189.662C158.535 190.07 159.45 190.693 160.2 191.49C161.63 193.06 162.35 195.41 162.35 198.49V199.22C162.371 200.654 162.175 202.084 161.77 203.46C161.446 204.584 160.887 205.627 160.13 206.52C159.443 207.323 158.576 207.953 157.6 208.36C156.558 208.778 155.443 208.986 154.32 208.97C152.997 209.002 151.693 208.655 150.56 207.97C149.545 207.356 148.707 206.487 148.13 205.45V215.74L144.17 215.79ZM155.36 205.19C155.967 204.913 156.504 204.503 156.93 203.99C157.39 203.394 157.729 202.715 157.93 201.99C158.195 201.098 158.323 200.17 158.31 199.24V198.51C158.324 197.632 158.195 196.757 157.93 195.92C157.723 195.237 157.383 194.602 156.93 194.05C156.496 193.557 155.961 193.165 155.36 192.9C154.749 192.63 154.088 192.493 153.42 192.5C152.69 192.495 151.964 192.624 151.28 192.88C150.659 193.097 150.088 193.437 149.6 193.88C149.14 194.346 148.773 194.896 148.52 195.5C148.256 196.161 148.123 196.868 148.13 197.58V200.09C148.121 200.857 148.253 201.62 148.52 202.34C148.762 202.982 149.129 203.57 149.6 204.07C150.076 204.552 150.648 204.927 151.28 205.17C151.96 205.442 152.687 205.578 153.42 205.57C154.087 205.587 154.749 205.457 155.36 205.19Z" fill="#2B3B4C"/>
<path d="M170.86 208.43C170.142 208.235 169.48 207.871 168.93 207.37C168.41 206.86 168.034 206.222 167.84 205.52C167.592 204.645 167.474 203.739 167.49 202.83V192.9H164.79V189.51H167.49V185.2H171.49V189.51H176.35V192.9H171.49V202.31C171.483 202.778 171.533 203.244 171.64 203.7C171.709 204.059 171.883 204.39 172.14 204.65C172.402 204.905 172.726 205.088 173.08 205.18C173.561 205.295 174.055 205.349 174.55 205.34H175.63C175.991 205.33 176.352 205.3 176.71 205.25V208.63L175.33 208.76C174.857 208.8 174.297 208.82 173.65 208.82C172.706 208.825 171.766 208.694 170.86 208.43V208.43Z" fill="#2B3B4C"/>
<path d="M181.11 186.56C180.667 186.095 180.42 185.477 180.42 184.835C180.42 184.193 180.667 183.575 181.11 183.11C181.618 182.666 182.27 182.422 182.945 182.422C183.62 182.422 184.272 182.666 184.78 183.11C185.217 183.578 185.459 184.195 185.459 184.835C185.459 185.475 185.217 186.092 184.78 186.56C184.272 187.004 183.62 187.248 182.945 187.248C182.27 187.248 181.618 187.004 181.11 186.56ZM180.96 208.56V189.51H184.96V208.59L180.96 208.56Z" fill="#2B3B4C"/>
<path d="M195.03 208.4C193.915 208.016 192.893 207.403 192.03 206.6C191.154 205.737 190.472 204.697 190.03 203.55C189.499 202.176 189.241 200.712 189.27 199.24V198.51C189.244 197.106 189.503 195.711 190.03 194.41C190.481 193.302 191.162 192.303 192.03 191.48C192.9 190.693 193.92 190.091 195.03 189.71C197.366 188.923 199.894 188.923 202.23 189.71C203.343 190.088 204.365 190.694 205.23 191.49C206.091 192.323 206.772 193.323 207.23 194.43C207.756 195.724 208.011 197.113 207.98 198.51V199.24C208.01 200.702 207.755 202.155 207.23 203.52C206.783 204.667 206.102 205.71 205.23 206.58C204.375 207.398 203.351 208.019 202.23 208.4C199.894 209.186 197.366 209.186 195.03 208.4V208.4ZM200.65 205.16C201.293 204.913 201.871 204.524 202.34 204.02C202.857 203.462 203.249 202.801 203.49 202.08C203.801 201.166 203.95 200.205 203.93 199.24V198.51C203.947 197.617 203.798 196.728 203.49 195.89C203.239 195.197 202.848 194.564 202.34 194.03C201.866 193.541 201.289 193.165 200.65 192.93C199.356 192.472 197.944 192.472 196.65 192.93C196.011 193.165 195.434 193.541 194.96 194.03C194.449 194.563 194.054 195.196 193.8 195.89C193.5 196.73 193.354 197.618 193.37 198.51V199.24C193.352 200.204 193.497 201.164 193.8 202.08C194.042 202.821 194.437 203.502 194.96 204.08C195.422 204.59 196.002 204.978 196.65 205.21C197.289 205.451 197.967 205.577 198.65 205.58C199.337 205.564 200.015 205.422 200.65 205.16V205.16Z" fill="#2B3B4C"/>
<path d="M211.95 208.59V189.51H215.63V192.79C216.14 191.74 216.928 190.851 217.91 190.22C219.153 189.439 220.604 189.055 222.07 189.12C223.038 189.044 224.012 189.173 224.927 189.499C225.842 189.825 226.678 190.339 227.38 191.01C228.644 192.564 229.27 194.541 229.13 196.54V208.54H225.13V197.43C225.228 196.141 224.875 194.857 224.13 193.8C223.695 193.358 223.167 193.018 222.584 192.807C222 192.596 221.377 192.518 220.76 192.58C220.003 192.557 219.249 192.696 218.55 192.99C217.975 193.237 217.46 193.606 217.04 194.07C216.638 194.515 216.34 195.045 216.17 195.62C215.99 196.206 215.899 196.816 215.9 197.43V208.59H211.95Z" fill="#2B3B4C"/>
</svg>
