<svg width="24" height="24" viewBox="0 0 24 24" fill="none" xmlns="http://www.w3.org/2000/svg">
<path fill-rule="evenodd" clip-rule="evenodd" d="M12.6617 16.5279C12.6617 16.5279 12.9057 16.5019 13.0297 16.3699C13.1447 16.2499 13.1397 16.0219 13.1397 16.0219C13.1397 16.0219 13.1257 14.9599 13.6277 14.8029C14.1227 14.6489 14.7587 15.8299 15.4337 16.2849C15.9437 16.6279 16.3307 16.5529 16.3307 16.5529L18.1337 16.5279C18.1337 16.5279 19.0767 16.4709 18.6297 15.7439C18.5927 15.6839 18.3687 15.2039 17.2897 14.2209C16.1577 13.1909 16.3097 13.3579 17.6717 11.5759C18.5007 10.4909 18.8317 9.82892 18.7287 9.54592C18.6297 9.27492 18.0197 9.34592 18.0197 9.34592L15.9897 9.35892C15.9897 9.35892 15.8397 9.33892 15.7277 9.40392C15.6187 9.46792 15.5477 9.61792 15.5477 9.61792C15.5477 9.61792 15.2277 10.4579 14.7987 11.1719C13.8947 12.6779 13.5337 12.7579 13.3857 12.6639C13.0417 12.4459 13.1277 11.7879 13.1277 11.3209C13.1277 9.86092 13.3537 9.25092 12.6887 9.09392C12.4687 9.04192 12.3057 9.00792 11.7417 9.00192C11.0167 8.99392 10.4037 9.00392 10.0567 9.17092C9.82667 9.28092 9.64667 9.52892 9.75667 9.54392C9.89067 9.56092 10.1947 9.62392 10.3557 9.83892C10.5637 10.1169 10.5557 10.7409 10.5557 10.7409C10.5557 10.7409 10.6757 12.4589 10.2767 12.6729C10.0037 12.8189 9.62867 12.5199 8.82267 11.1529C8.54924 10.6782 8.30706 10.1862 8.09767 9.67992C8.09767 9.67992 8.03767 9.53492 7.92967 9.45692C7.79967 9.36292 7.61867 9.33392 7.61867 9.33392L5.68967 9.34592C5.68967 9.34592 5.39967 9.35392 5.29367 9.47792C5.19967 9.58792 5.28667 9.81492 5.28667 9.81492C5.28667 9.81492 6.79667 13.2829 8.50667 15.0309C10.0747 16.6329 11.8547 16.5279 11.8547 16.5279H12.6617Z" fill="black"/>
<rect x="0.5" y="0.5" width="23" height="23" rx="11.5" stroke="black"/>
</svg>
