<svg xmlns="http://www.w3.org/2000/svg" width="24" height="24" fill="none"><rect width="24" height="24" fill="#2B2D33" rx="6"/><path fill="#fff" d="M17.31 8.28a3.288 3.288 0 0 1-1.777-1.053 3.382 3.382 0 0 1-.819-1.918V5h-2.371v9.57a2.05 2.05 0 0 1-.378 1.179c-.244.343-.587.6-.982.735-.396.134-.822.14-1.22.015a1.994 1.994 0 0 1-1-.71 2.048 2.048 0 0 1-.042-2.394c.244-.352.592-.615.994-.752.401-.138.835-.141 1.239-.01v-2.45a4.295 4.295 0 0 0-2.621.465 4.396 4.396 0 0 0-1.866 1.928 4.495 4.495 0 0 0-.416 2.67 4.457 4.457 0 0 0 1.19 2.42 4.338 4.338 0 0 0 2.229 1.241c.848.18 1.729.098 2.531-.235a4.374 4.374 0 0 0 1.972-1.63c.483-.731.741-1.592.741-2.472V9.68A5.569 5.569 0 0 0 18 10.748V8.353c-.232 0-.463-.025-.69-.073Z"/></svg>